<?xml version="1.0" encoding="utf-8"?>
<!-- Generator: Adobe Illustrator 19.2.1, SVG Export Plug-In . SVG Version: 6.00 Build 0)  -->
<svg version="1.1" id="_1" xmlns="http://www.w3.org/2000/svg" xmlns:xlink="http://www.w3.org/1999/xlink" x="0px" y="0px"
	 viewBox="0 0 486 152.5" style="enable-background:new 0 0 486 152.5;" xml:space="preserve">
<style type="text/css">
	.st0{fill:#14467A;}
	.st1{fill:url(#SVGID_1_);}
	.st2{fill:url(#SVGID_2_);}
	.st3{fill:#1D5876;}
	.st4{fill:#29363C;}
	.st5{opacity:0.15;fill:url(#SVGID_3_);enable-background:new    ;}
	.st6{fill:#204D68;}
	.st7{opacity:0.6;fill:url(#SVGID_4_);enable-background:new    ;}
	.st8{fill:url(#SVGID_5_);}
	.st9{fill:url(#SVGID_6_);}
	.st10{fill:url(#SVGID_7_);}
	.st11{fill:url(#SVGID_8_);}
	.st12{fill:url(#SVGID_9_);}
	.st13{fill:url(#SVGID_10_);}
	.st14{fill:url(#SVGID_11_);}
	.st15{fill:url(#SVGID_12_);}
	.st16{fill:url(#SVGID_13_);}
	.st17{fill:url(#SVGID_14_);}
	.st18{fill:url(#SVGID_15_);}
	.st19{fill:url(#SVGID_16_);}
	.st20{fill:url(#SVGID_17_);}
	.st21{fill:url(#SVGID_18_);}
	.st22{fill:url(#SVGID_19_);}
	.st23{fill:url(#SVGID_20_);}
	.st24{fill:url(#SVGID_21_);}
	.st25{fill:url(#SVGID_22_);}
	.st26{opacity:0.9;}
	.st27{filter:url(#Adobe_OpacityMaskFilter);}
	.st28{filter:url(#Adobe_OpacityMaskFilter_1_);}
	.st29{mask:url(#SVGID_23_);fill:url(#SVGID_24_);}
	.st30{fill:url(#SVGID_25_);}
	.st31{filter:url(#Adobe_OpacityMaskFilter_2_);}
	.st32{filter:url(#Adobe_OpacityMaskFilter_3_);}
	.st33{mask:url(#SVGID_26_);fill:url(#SVGID_27_);}
	.st34{fill:url(#SVGID_28_);}
	.st35{filter:url(#Adobe_OpacityMaskFilter_4_);}
	.st36{filter:url(#Adobe_OpacityMaskFilter_5_);}
	.st37{mask:url(#SVGID_29_);fill:url(#SVGID_30_);}
	.st38{fill:url(#SVGID_31_);}
</style>
<g>
	<g>
		<circle class="st0" cx="78.8" cy="76.2" r="76.2"/>
		
			<radialGradient id="SVGID_1_" cx="363.7738" cy="5292.0049" r="73.2548" gradientTransform="matrix(1 0 0 -1 -284.5 5369.5132)" gradientUnits="userSpaceOnUse">
			<stop  offset="2.420000e-002" style="stop-color:#52A7D2"/>
			<stop  offset="0.2606" style="stop-color:#3CA0CD"/>
			<stop  offset="0.5394" style="stop-color:#249AC7"/>
			<stop  offset="0.8606" style="stop-color:#2291BF"/>
			<stop  offset="1" style="stop-color:#0077AE"/>
		</radialGradient>
		<circle class="st1" cx="79.3" cy="77.5" r="73.3"/>
		
			<linearGradient id="SVGID_2_" gradientUnits="userSpaceOnUse" x1="324.8762" y1="5352.8574" x2="359.5866" y2="5297.3091" gradientTransform="matrix(1 0 0 -1 -284.5 5369.5132)">
			<stop  offset="0" style="stop-color:#F4F4F6"/>
			<stop  offset="0.5515" style="stop-color:#83B6CF"/>
			<stop  offset="0.6121" style="stop-color:#83B6CF"/>
			<stop  offset="1" style="stop-color:#C2D8E6"/>
			<stop  offset="1" style="stop-color:#F4F4F6"/>
		</linearGradient>
		<path class="st2" d="M27.3,65.8c0,0-17.1-18.6,10.3-47.1c0,0,21.8-18.8,45.7-0.4c7.7,6.2,8.4,11.2,9.2,16
			c0.3,3.5,0.7,7.2-0.1,11.8c-1.8,9.5-7.5,20.5-21.8,28.9C70.6,75,43.9,89.5,27.3,65.8z"/>
		<path class="st3" d="M67,85.7c0,0-15.6-4.1-10.7-26.3c0,0,3.1-10.9,16.9-15.2c0.6-0.1,0.6-0.2,1.8-0.2l50.2-0.1L121,59.4
			l-44.2,0.2c0,0-10.1-0.2-10.6,17.3C66.3,76.9,66.2,83.9,67,85.7z"/>
		<path class="st4" d="M47.4,116.6h-2.3l6.7-20.9l44,0.1c0,0,9.4-9.8,1.9-29.5c0,0,21.9-0.5,20.9,19.4c-1,19.7-43.8,30.8-43.8,30.8
			H47.4L47.4,116.6z"/>
		<path class="st3" d="M103.3,78.8c1.5,10.4-3,17-5.8,19.1c-0.7,0.5-1.8,0.6-1.8,0.6l-41.8,0.1l-5.8,18h53.1c1-0.2,1.2-0.3,1.2-0.3
			c12.8-4.7,16.1-25.8,16.1-25.8c3-19.8-18-21.6-18-21.6S103,76.5,103.3,78.8z"/>
		
			<linearGradient id="SVGID_3_" gradientUnits="userSpaceOnUse" x1="326.5479" y1="5353.8833" x2="361.8325" y2="5297.416" gradientTransform="matrix(1 0 0 -1 -284.5 5369.5132)">
			<stop  offset="0" style="stop-color:#F4F4F6"/>
			<stop  offset="0.5515" style="stop-color:#83B6CF"/>
			<stop  offset="0.6121" style="stop-color:#83B6CF"/>
			<stop  offset="1" style="stop-color:#C2D8E6"/>
			<stop  offset="1" style="stop-color:#F4F4F6"/>
		</linearGradient>
		<path class="st5" d="M10.3,73.1c0,1.3-6.5-44.4,43-62.3c0,0,36.6-7.9,67.2,22.1c0,0-14.2,3.9-32,30C89.3,61.9,61.3,96.8,10.3,73.1
			z"/>
		<path class="st4" d="M75.5,40.2c0,0-20.9,0-21.4,25.4c0,0,0,4.1,2.1,9c0,0-1.5-5.6-0.3-12.6c1.4-6,5.3-13.4,16.2-17.3
			c0,0,2.5-0.7,5.6-0.5l47.3-0.1l0.6-3.8"/>
		<path class="st4" d="M79.2,87.2c0,0-5.9-8.2,3.5-12.5c0,0,6.6-3.3,10.9,4.4"/>
		<path class="st4" d="M78.7,86.7c0,0-5.4-8.5,3.5-12.5c0,0,6.5-3.5,11.1,4.4"/>
		<path class="st4" d="M93.8,79.6"/>
		<ellipse class="st6" cx="86.3" cy="83.1" rx="8.4" ry="8.1"/>
		
			<linearGradient id="SVGID_4_" gradientUnits="userSpaceOnUse" x1="322.9359" y1="5234.6309" x2="403.1457" y2="5234.6309" gradientTransform="matrix(1 0 0 -1 -284.5 5369.5132)">
			<stop  offset="0" style="stop-color:#2291C0"/>
			<stop  offset="0.1636" style="stop-color:#1096C8"/>
			<stop  offset="0.497" style="stop-color:#F9F5EB"/>
			<stop  offset="0.7636" style="stop-color:#1096C8"/>
			<stop  offset="0.9212" style="stop-color:#2291C0"/>
		</linearGradient>
		<path class="st7" d="M38.4,125.5c0,0,2.2,4.8,8.1,9c13.2,9.5,39.7,19.6,72.1-9C118.6,125.5,75.8,141.5,38.4,125.5z"/>
	</g>
	<g>
		
			<linearGradient id="SVGID_5_" gradientUnits="userSpaceOnUse" x1="487.0152" y1="5323.8628" x2="495.1432" y2="5301.5313" gradientTransform="matrix(1 0 0 -1 -284.5 5369.5132)">
			<stop  offset="6.060000e-002" style="stop-color:#44A1D5"/>
			<stop  offset="0.2242" style="stop-color:#2E98D0"/>
			<stop  offset="1" style="stop-color:#18477B"/>
		</linearGradient>
		<path class="st8" d="M229.7,49.9h-38.8c0,0-0.6,0.1-7.9,9.5c0,0-2.6,3.5,0.9,4h39.3c0,0,0.5-0.2,1.2-1.4l6.2-11.3
			C230.6,50.7,230.9,49.8,229.7,49.9z"/>
		
			<linearGradient id="SVGID_6_" gradientUnits="userSpaceOnUse" x1="474.2522" y1="5304.0425" x2="489.1549" y2="5263.0977" gradientTransform="matrix(1 0 0 -1 -284.5 5369.5132)">
			<stop  offset="6.060000e-002" style="stop-color:#44A1D5"/>
			<stop  offset="0.2242" style="stop-color:#2E98D0"/>
			<stop  offset="1" style="stop-color:#18477B"/>
		</linearGradient>
		<path class="st9" d="M182,68.3h36.5c0,0,0.4,0.2,1.1,0.8c0,0,7.3,6.4,6.1,17.1c0,0-1.7,11.6-10.1,16.2h-43c0,0-0.3-0.1,0-0.9
			l3.4-13c0,0,0.2-0.1,0.8-0.1h26.8c0,0,3.7-0.9,2.2-4.8c0,0-1-1.8-3.2-1.9l-17.1,0c0,0-5.1,0-4.8-6.1
			C180.7,75.6,181.1,68.8,182,68.3z"/>
		
			<linearGradient id="SVGID_7_" gradientUnits="userSpaceOnUse" x1="521.9829" y1="5304.2612" x2="525.2688" y2="5295.2334" gradientTransform="matrix(1 0 0 -1 -284.5 5369.5132)">
			<stop  offset="6.060000e-002" style="stop-color:#44A1D5"/>
			<stop  offset="0.2242" style="stop-color:#2E98D0"/>
			<stop  offset="1" style="stop-color:#18477B"/>
		</linearGradient>
		<path class="st10" d="M235.1,66.1h9.7c0,0-1.2,5.6-1.8,7.3l-9.4,0.1c0,0-0.3,0-0.3-0.3l1.7-6.9C235.1,66.3,235.1,66.1,235.1,66.1z
			"/>
		
			<linearGradient id="SVGID_8_" gradientUnits="userSpaceOnUse" x1="548.5741" y1="5307.0273" x2="553.7077" y2="5292.9229" gradientTransform="matrix(1 0 0 -1 -284.5 5369.5132)">
			<stop  offset="6.060000e-002" style="stop-color:#44A1D5"/>
			<stop  offset="0.2242" style="stop-color:#2E98D0"/>
			<stop  offset="1" style="stop-color:#18477B"/>
		</linearGradient>
		<path class="st11" d="M254.1,66.1l27.3,0c0,0,0.4,0,0.3,0.4l-3,6.5c0,0-0.3,0.4-0.5,0.2l-26,0c0,0-0.5,0-0.4-0.6l2.2-6.4
			C253.9,66.3,254,66.1,254.1,66.1z"/>
		
			<linearGradient id="SVGID_9_" gradientUnits="userSpaceOnUse" x1="584.7191" y1="5307.0342" x2="590.0513" y2="5292.3843" gradientTransform="matrix(1 0 0 -1 -284.5 5369.5132)">
			<stop  offset="6.060000e-002" style="stop-color:#44A1D5"/>
			<stop  offset="0.2242" style="stop-color:#2E98D0"/>
			<stop  offset="1" style="stop-color:#18477B"/>
		</linearGradient>
		<path class="st12" d="M290.7,66l26.9-0.1c0,0,0.3,0,0.2,0.5l-2.2,6.5c0,0-0.1,0.7-0.5,0.7l-26.8,0c0,0-0.6,0.1-0.2-0.4l2.3-7.1
			C290.4,66.1,290.5,66,290.7,66z"/>
		
			<linearGradient id="SVGID_10_" gradientUnits="userSpaceOnUse" x1="614.2744" y1="5321.374" x2="620.7165" y2="5303.6743" gradientTransform="matrix(1 0 0 -1 -284.5 5369.5132)">
			<stop  offset="6.060000e-002" style="stop-color:#44A1D5"/>
			<stop  offset="0.2242" style="stop-color:#2E98D0"/>
			<stop  offset="1" style="stop-color:#18477B"/>
		</linearGradient>
		<path class="st13" d="M322.4,51.4c0,0-0.5-0.8,0.5-0.6l17.3-0.3c0,0,0.2,0,0.4,0.6l2.6,12c0,0,0,0.4-0.3,0.4l-16.5-0.2
			c0,0-0.6,0.2-0.8-0.3L322.4,51.4z"/>
		
			<linearGradient id="SVGID_11_" gradientUnits="userSpaceOnUse" x1="657.6541" y1="5320.5586" x2="663.2666" y2="5305.1382" gradientTransform="matrix(1 0 0 -1 -284.5 5369.5132)">
			<stop  offset="6.060000e-002" style="stop-color:#44A1D5"/>
			<stop  offset="0.2242" style="stop-color:#2E98D0"/>
			<stop  offset="1" style="stop-color:#18477B"/>
		</linearGradient>
		<path class="st14" d="M369.3,50.6c0,0,0.2-0.5,1-0.4l21.6,0c0,0,0.7-0.1,0.1,0.5l-10.2,12.4c0,0-0.3,0.4-0.7,0.5l-20.8,0
			c0,0-0.6-0.1-0.3-0.6L369.3,50.6z"/>
		
			<linearGradient id="SVGID_12_" gradientUnits="userSpaceOnUse" x1="760.079" y1="5304.1958" x2="763.4733" y2="5294.8701" gradientTransform="matrix(1 0 0 -1 -284.5 5369.5132)">
			<stop  offset="6.060000e-002" style="stop-color:#44A1D5"/>
			<stop  offset="0.2242" style="stop-color:#2E98D0"/>
			<stop  offset="1" style="stop-color:#18477B"/>
		</linearGradient>
		<path class="st15" d="M473.3,66.2L484,66c0,0,0.4-0.1,0.1,0.4l-2.9,7.1c0,0-0.1,0.4-0.3,0.3l-10.4,0c0,0-0.3,0.1-0.2-0.3l2.8-7.2
			C473.2,66.3,473.3,66.1,473.3,66.2z"/>
		
			<linearGradient id="SVGID_13_" gradientUnits="userSpaceOnUse" x1="732.0934" y1="5304.4849" x2="735.5035" y2="5295.1157" gradientTransform="matrix(1 0 0 -1 -284.5 5369.5132)">
			<stop  offset="6.060000e-002" style="stop-color:#44A1D5"/>
			<stop  offset="0.2242" style="stop-color:#2E98D0"/>
			<stop  offset="1" style="stop-color:#18477B"/>
		</linearGradient>
		<path class="st16" d="M444.9,66.2c0,0,0.1-0.4,0.3-0.3l10.4-0.2c0,0,0.3,0,0.2,0.3l-2.7,7.4c0,0-0.1,0.3-0.4,0.3l-9.8,0.1
			c0,0-0.2-0.1-0.1-0.3L444.9,66.2z"/>
		
			<linearGradient id="SVGID_14_" gradientUnits="userSpaceOnUse" x1="703.7768" y1="5306.8882" x2="709.1216" y2="5292.2036" gradientTransform="matrix(1 0 0 -1 -284.5 5369.5132)">
			<stop  offset="6.060000e-002" style="stop-color:#44A1D5"/>
			<stop  offset="0.2242" style="stop-color:#2E98D0"/>
			<stop  offset="1" style="stop-color:#18477B"/>
		</linearGradient>
		<path class="st17" d="M409.6,66.4c0,0,0.1-0.5,0.5-0.4l26.1,0c0,0,0.5,0,0.3,0.4l-2.6,7.4c0,0-0.2,0.3-0.6,0.2L407.6,74
			c0,0-0.4-0.1,0-0.5L409.6,66.4z"/>
		
			<linearGradient id="SVGID_15_" gradientUnits="userSpaceOnUse" x1="678.2245" y1="5304.2202" x2="681.7022" y2="5294.665" gradientTransform="matrix(1 0 0 -1 -284.5 5369.5132)">
			<stop  offset="6.060000e-002" style="stop-color:#44A1D5"/>
			<stop  offset="0.2242" style="stop-color:#2E98D0"/>
			<stop  offset="1" style="stop-color:#18477B"/>
		</linearGradient>
		<path class="st18" d="M391.4,66.4c0,0,0-0.4,0.4-0.4h9.7c0,0,0.4,0,0.2,0.4l-2.3,7.5c0,0,0,0.2-0.2,0.2l-9.7-0.1
			c0,0-0.3,0-0.1-0.5L391.4,66.4z"/>
		
			<linearGradient id="SVGID_16_" gradientUnits="userSpaceOnUse" x1="514.8755" y1="5289.1685" x2="522.5443" y2="5268.0986" gradientTransform="matrix(1 0 0 -1 -284.5 5369.5132)">
			<stop  offset="6.060000e-002" style="stop-color:#44A1D5"/>
			<stop  offset="0.2242" style="stop-color:#2E98D0"/>
			<stop  offset="1" style="stop-color:#18477B"/>
		</linearGradient>
		<path class="st19" d="M232.9,79.5h8.9c0,0,0.1,0.1,0,0.4l-6.1,22.1c0,0-0.1,0.4-0.5,0.4h-8.4c0,0-0.3-0.1,0-1l5.7-21.7
			C232.5,79.8,232.5,79.5,232.9,79.5z"/>
		
			<linearGradient id="SVGID_17_" gradientUnits="userSpaceOnUse" x1="541.6873" y1="5288.9907" x2="549.3025" y2="5268.0679" gradientTransform="matrix(1 0 0 -1 -284.5 5369.5132)">
			<stop  offset="6.060000e-002" style="stop-color:#44A1D5"/>
			<stop  offset="0.2242" style="stop-color:#2E98D0"/>
			<stop  offset="1" style="stop-color:#18477B"/>
		</linearGradient>
		<path class="st20" d="M260,79.5h7.8c0,0,0.5-0.1,0.2,0.4l-5.6,22.2c0,0-0.1,0.3-0.3,0.3l-8,0c0,0-0.1-0.1,0-0.5l5.7-22.2
			C259.7,79.8,259.7,79.5,260,79.5z"/>
		
			<linearGradient id="SVGID_18_" gradientUnits="userSpaceOnUse" x1="577.0562" y1="5291.4453" x2="586.6671" y2="5265.0396" gradientTransform="matrix(1 0 0 -1 -284.5 5369.5132)">
			<stop  offset="6.060000e-002" style="stop-color:#44A1D5"/>
			<stop  offset="0.2242" style="stop-color:#2E98D0"/>
			<stop  offset="1" style="stop-color:#18477B"/>
		</linearGradient>
		<path class="st21" d="M286.2,80.7c0,0-0.1-0.5,0.4-0.4l26.6,0c0,0,0.5,0,0.4,0.4c0,0-1.6,4.7-2.6,7c-0.8,0.1-13.5,0.1-13.5,0.1
			s-3,0-3.4,3.5c0,0-0.1,1.9,1.9,2.1l13.2,0.1c0,0,0.2-0.1,0.2,0.3l-2.1,8.6c0,0,0,0.3-0.2,0.3l-26-0.2c0,0-0.4,0.1-0.2-0.7
			L286.2,80.7z"/>
		
			<linearGradient id="SVGID_19_" gradientUnits="userSpaceOnUse" x1="630.891" y1="5307.9233" x2="644.3507" y2="5270.9434" gradientTransform="matrix(1 0 0 -1 -284.5 5369.5132)">
			<stop  offset="6.060000e-002" style="stop-color:#44A1D5"/>
			<stop  offset="0.2242" style="stop-color:#2E98D0"/>
			<stop  offset="1" style="stop-color:#18477B"/>
		</linearGradient>
		<path class="st22" d="M327.3,68.6l16.2,0.2c0,0,0.6-0.1,0.6,0.7l2,9.5l10.5-10.1l20.6-0.1c0,0,0.4,0,0,0.6l-26.3,32.4
			c0,0-0.2,0.2-0.9,0.3H333c0,0-0.3,0-0.2-0.5l-6-32.7C326.7,69,326.7,68.6,327.3,68.6z"/>
		
			<linearGradient id="SVGID_20_" gradientUnits="userSpaceOnUse" x1="670.2112" y1="5289.3994" x2="678" y2="5268" gradientTransform="matrix(1 0 0 -1 -284.5 5369.5132)">
			<stop  offset="6.060000e-002" style="stop-color:#44A1D5"/>
			<stop  offset="0.2242" style="stop-color:#2E98D0"/>
			<stop  offset="1" style="stop-color:#18477B"/>
		</linearGradient>
		<path class="st23" d="M387.9,79.3h10c0,0,0.2,0,0.1,0.3l-6.2,22.4c0,0,0,0.2-0.4,0.2l-10.1,0.1c0,0-0.3,0.1-0.1-0.4l6.5-22.4
			L387.9,79.3z"/>
		
			<linearGradient id="SVGID_21_" gradientUnits="userSpaceOnUse" x1="696.201" y1="5291.9185" x2="706.0667" y2="5264.8135" gradientTransform="matrix(1 0 0 -1 -284.5 5369.5132)">
			<stop  offset="6.060000e-002" style="stop-color:#44A1D5"/>
			<stop  offset="0.2242" style="stop-color:#2E98D0"/>
			<stop  offset="1" style="stop-color:#18477B"/>
		</linearGradient>
		<path class="st24" d="M406.1,79.9c0,0,0-0.4,0.4-0.3h26.3c0,0,0.3,0,0.1,0.3l-1.9,8.4c0,0-0.1,0.2-0.3,0.2l-11.1,0.3
			c0,0-7.6,2.4-0.5,4.2l10.7-0.1c0,0,0.1-0.1,0.1,0.2l-1.7,9.2c0,0-0.1,0.1-0.2,0.1l-27.7,0.1c0,0-0.2,0-0.1-0.3L406.1,79.9z"/>
		
			<linearGradient id="SVGID_22_" gradientUnits="userSpaceOnUse" x1="736.7743" y1="5293.854" x2="747.5865" y2="5264.1475" gradientTransform="matrix(1 0 0 -1 -284.5 5369.5132)">
			<stop  offset="6.060000e-002" style="stop-color:#44A1D5"/>
			<stop  offset="0.2242" style="stop-color:#2E98D0"/>
			<stop  offset="1" style="stop-color:#18477B"/>
		</linearGradient>
		<path class="st25" d="M441.8,79.7c0,0,0.1-0.3,0.3-0.3l10.5,0c0,0,0.1-0.1,0.2,0.3c0,0,1.1,5.9,1.5,7.5c0,0,1.4-1.8,5.1-7.9
			c0,0,0,0,0.9,0c0,0,1.4,6,2.2,8.1c0,0,2.6-2.7,6-8.1l10.7,0c0,0,0.1-0.1,0,0.4l-7.8,22.3c0,0,0,0.3-0.4,0.3h-9.9
			c0,0-0.3,0-0.4-0.3l-4.2-5.5h-3.3l-6.6,5.8h-10.3c0,0-0.2,0,0-0.5L441.8,79.7z"/>
		<g class="st26">
			<defs>
				<filter id="Adobe_OpacityMaskFilter" filterUnits="userSpaceOnUse" x="406.6" y="80.1" width="25.1" height="2.4">
					<feFlood  style="flood-color:white;flood-opacity:1" result="back"/>
					<feBlend  in="SourceGraphic" in2="back" mode="normal"/>
				</filter>
			</defs>
			<mask maskUnits="userSpaceOnUse" x="406.6" y="80.1" width="25.1" height="2.4" id="SVGID_23_">
				<g class="st27">
					<defs>
						<filter id="Adobe_OpacityMaskFilter_1_" filterUnits="userSpaceOnUse" x="406.6" y="80.1" width="25.1" height="2.4">
							<feFlood  style="flood-color:white;flood-opacity:1" result="back"/>
							<feBlend  in="SourceGraphic" in2="back" mode="normal"/>
						</filter>
					</defs>
					<mask maskUnits="userSpaceOnUse" x="406.6" y="80.1" width="25.1" height="2.4" id="SVGID_23_">
						<g class="st28">
						</g>
					</mask>
					
						<linearGradient id="SVGID_24_" gradientUnits="userSpaceOnUse" x1="734.4479" y1="4485.3833" x2="737.0649" y2="4478.1934" gradientTransform="matrix(0.9996 -9.900000e-003 9.900000e-003 -0.7505 -360.6049 3451.8752)">
						<stop  offset="2.420000e-002" style="stop-color:#333333"/>
						<stop  offset="0.2545" style="stop-color:#FFFFFF"/>
						<stop  offset="0.5091" style="stop-color:#FFFFFF"/>
						<stop  offset="0.7697" style="stop-color:#FFFFFF"/>
						<stop  offset="1" style="stop-color:#333333"/>
					</linearGradient>
					<path class="st29" d="M420.8,82.5c7.4-0.1,10.4-2.1,10.9-2.4c0,0-4.1,1-11.9,0.8c-8.5-0.2-10.2,0.1-13.1,0.6
						C406.6,81.5,411.6,82.7,420.8,82.5z"/>
				</g>
			</mask>
			
				<linearGradient id="SVGID_25_" gradientUnits="userSpaceOnUse" x1="734.4479" y1="4485.3833" x2="737.0649" y2="4478.1934" gradientTransform="matrix(0.9996 -9.900000e-003 9.900000e-003 -0.7505 -360.6049 3451.8752)">
				<stop  offset="2.420000e-002" style="stop-color:#F9F6F3"/>
				<stop  offset="0.2545" style="stop-color:#DEEBF0"/>
				<stop  offset="0.5091" style="stop-color:#83B6CF"/>
				<stop  offset="0.7697" style="stop-color:#DEEBF0"/>
				<stop  offset="1" style="stop-color:#F9F6F3"/>
			</linearGradient>
			<path class="st30" d="M420.8,82.5c7.4-0.1,10.4-2.1,10.9-2.4c0,0-4.1,1-11.9,0.8c-8.5-0.2-10.2,0.1-13.1,0.6
				C406.6,81.5,411.6,82.7,420.8,82.5z"/>
		</g>
		<g class="st26">
			<defs>
				<filter id="Adobe_OpacityMaskFilter_2_" filterUnits="userSpaceOnUse" x="183.1" y="78.1" width="23.5" height="1.5">
					<feFlood  style="flood-color:white;flood-opacity:1" result="back"/>
					<feBlend  in="SourceGraphic" in2="back" mode="normal"/>
				</filter>
			</defs>
			<mask maskUnits="userSpaceOnUse" x="183.1" y="78.1" width="23.5" height="1.5" id="SVGID_26_">
				<g class="st31">
					<defs>
						<filter id="Adobe_OpacityMaskFilter_3_" filterUnits="userSpaceOnUse" x="183.1" y="78.1" width="23.5" height="1.5">
							<feFlood  style="flood-color:white;flood-opacity:1" result="back"/>
							<feBlend  in="SourceGraphic" in2="back" mode="normal"/>
						</filter>
					</defs>
					<mask maskUnits="userSpaceOnUse" x="183.1" y="78.1" width="23.5" height="1.5" id="SVGID_26_">
						<g class="st32">
						</g>
					</mask>
					
						<linearGradient id="SVGID_27_" gradientUnits="userSpaceOnUse" x1="1375.1113" y1="2395.231" x2="1379.7216" y2="2382.5642" gradientTransform="matrix(0.6222 -6.000000e-004 6.000000e-004 -0.4707 -663.5688 1204.3156)">
						<stop  offset="2.420000e-002" style="stop-color:#333333"/>
						<stop  offset="0.2485" style="stop-color:#FFFFFF"/>
						<stop  offset="0.5091" style="stop-color:#FFFFFF"/>
						<stop  offset="0.7394" style="stop-color:#FFFFFF"/>
						<stop  offset="1" style="stop-color:#333333"/>
					</linearGradient>
					<path class="st33" d="M195.5,79.6c5.1,0.1,10.8-0.2,11.2-0.4c0,0-5.3-0.6-10.8-1c-6.1-0.4-10.9,0.4-12.8,0.7
						C183.1,78.9,189.1,79.5,195.5,79.6z"/>
				</g>
			</mask>
			
				<linearGradient id="SVGID_28_" gradientUnits="userSpaceOnUse" x1="1375.1113" y1="2395.231" x2="1379.7216" y2="2382.5642" gradientTransform="matrix(0.6222 -6.000000e-004 6.000000e-004 -0.4707 -663.5688 1204.3156)">
				<stop  offset="2.420000e-002" style="stop-color:#F9F6F3"/>
				<stop  offset="0.2485" style="stop-color:#DEEBF0"/>
				<stop  offset="0.5091" style="stop-color:#83B6CF"/>
				<stop  offset="0.7394" style="stop-color:#DEEBF0"/>
				<stop  offset="1" style="stop-color:#F9F6F3"/>
			</linearGradient>
			<path class="st34" d="M195.5,79.6c5.1,0.1,10.8-0.2,11.2-0.4c0,0-5.3-0.6-10.8-1c-6.1-0.4-10.9,0.4-12.8,0.7
				C183.1,78.9,189.1,79.5,195.5,79.6z"/>
		</g>
		<g class="st26">
			<defs>
				<filter id="Adobe_OpacityMaskFilter_4_" filterUnits="userSpaceOnUse" x="330.2" y="71.1" width="6.5" height="28.5">
					<feFlood  style="flood-color:white;flood-opacity:1" result="back"/>
					<feBlend  in="SourceGraphic" in2="back" mode="normal"/>
				</filter>
			</defs>
			<mask maskUnits="userSpaceOnUse" x="330.2" y="71.1" width="6.5" height="28.5" id="SVGID_29_">
				<g class="st35">
					<defs>
						<filter id="Adobe_OpacityMaskFilter_5_" filterUnits="userSpaceOnUse" x="330.2" y="71.1" width="6.5" height="28.5">
							<feFlood  style="flood-color:white;flood-opacity:1" result="back"/>
							<feBlend  in="SourceGraphic" in2="back" mode="normal"/>
						</filter>
					</defs>
					<mask maskUnits="userSpaceOnUse" x="330.2" y="71.1" width="6.5" height="28.5" id="SVGID_29_">
						<g class="st36">
						</g>
					</mask>
					
						<linearGradient id="SVGID_30_" gradientUnits="userSpaceOnUse" x1="3387.5991" y1="5421.6909" x2="3391.1646" y2="5411.8945" gradientTransform="matrix(0.2306 0.973 0.5346 -0.1239 -3343.9644 -2541.3618)">
						<stop  offset="2.420000e-002" style="stop-color:#333333"/>
						<stop  offset="0.2485" style="stop-color:#FFFFFF"/>
						<stop  offset="0.5091" style="stop-color:#FFFFFF"/>
						<stop  offset="0.7394" style="stop-color:#FFFFFF"/>
						<stop  offset="1" style="stop-color:#333333"/>
					</linearGradient>
					<path class="st37" d="M336.7,99.6c0,0-1-6.6-2.2-13.2c-1.4-7.5-3.5-13.1-4.3-15.3"/>
				</g>
			</mask>
			
				<linearGradient id="SVGID_31_" gradientUnits="userSpaceOnUse" x1="3387.5991" y1="5421.6909" x2="3391.1646" y2="5411.8945" gradientTransform="matrix(0.2306 0.973 0.5346 -0.1239 -3343.9644 -2541.3618)">
				<stop  offset="2.420000e-002" style="stop-color:#F9F6F3"/>
				<stop  offset="0.2485" style="stop-color:#DEEBF0"/>
				<stop  offset="0.5091" style="stop-color:#83B6CF"/>
				<stop  offset="0.7394" style="stop-color:#DEEBF0"/>
				<stop  offset="1" style="stop-color:#F9F6F3"/>
			</linearGradient>
			<path class="st38" d="M336.7,99.6c0,0-1-6.6-2.2-13.2c-1.4-7.5-3.5-13.1-4.3-15.3"/>
		</g>
	</g>
</g>
</svg>
