<?xml version="1.0" encoding="utf-8"?>
<!-- Generator: Adobe Illustrator 16.0.0, SVG Export Plug-In . SVG Version: 6.00 Build 0)  -->
<!DOCTYPE svg PUBLIC "-//W3C//DTD SVG 1.1//EN" "http://www.w3.org/Graphics/SVG/1.1/DTD/svg11.dtd">
<svg version="1.1" id="图层_1" xmlns="http://www.w3.org/2000/svg" xmlns:xlink="http://www.w3.org/1999/xlink" x="0px" y="0px"
	 width="65px" height="65px" viewBox="0 0 65 65" enable-background="new 0 0 65 65" xml:space="preserve">
<g>
	<path fill-rule="evenodd" clip-rule="evenodd" fill="#122A88" d="M31.762,61.682c-0.186,0.07-0.604,0.105-0.799,0.105
		c-0.157,0-0.092-0.022-0.246-0.069C29.802,61.443,8.5,54.818,8.5,40.891V17.363c0-0.908,0.508-1.645,1.412-1.645
		c4.069,0,7.317-3.333,7.377-7.427c0.014-0.899,0.63-1.624,1.525-1.624h24.272c0.894,0,1.622,0.725,1.636,1.624
		c0.061,4.094,3.642,7.426,7.711,7.426c0.904,0,1.859,0.739,1.859,1.646V40.9C54.292,53.099,32.672,61.337,31.762,61.682z
		 M51.021,40.9v-5.85H32.215v22.997C38.522,55.386,51.021,48.533,51.021,40.9z M30.58,58.129V35.05H11.771v5.841
		C11.771,50.663,26.13,56.542,30.58,58.129z M20.302,9.956c-0.764,4.934-4.443,8.215-8.531,8.925v14.524H30.58V9.956H20.302z
		 M41.597,9.956h-9.382v23.449h18.807V18.881C46.115,18.171,42.361,14.89,41.597,9.956z"/>
</g>
<path opacity="0.5" fill-rule="evenodd" clip-rule="evenodd" fill="#122A88" d="M11.22,34.5H31.5v26.12
	c0,0-18.301-9.962-19.203-11.397C11.396,47.789,11.22,34.5,11.22,34.5z"/>
<polygon opacity="0.5" fill-rule="evenodd" clip-rule="evenodd" fill="#122A88" points="31.5,8.5 31.5,33.5 52.5,33.5 52.5,18.908 
	47.049,15.766 42.731,8.5 "/>
</svg>
