<?xml version="1.0" encoding="utf-8"?>
<!-- Generator: Adobe Illustrator 16.0.0, SVG Export Plug-In . SVG Version: 6.00 Build 0)  -->
<!DOCTYPE svg PUBLIC "-//W3C//DTD SVG 1.1//EN" "http://www.w3.org/Graphics/SVG/1.1/DTD/svg11.dtd">
<svg version="1.1" id="图层_1" xmlns="http://www.w3.org/2000/svg" xmlns:xlink="http://www.w3.org/1999/xlink" x="0px" y="0px"
	 width="65px" height="65px" viewBox="0 0 65 65" enable-background="new 0 0 65 65" xml:space="preserve">
<circle opacity="0.5" fill-rule="evenodd" clip-rule="evenodd" fill="#122A88" cx="31.617" cy="50.603" r="4.057"/>
<circle opacity="0.5" fill-rule="evenodd" clip-rule="evenodd" fill="#122A88" cx="13.993" cy="14.516" r="4.057"/>
<g>
	<path fill-rule="evenodd" clip-rule="evenodd" fill="#122A88" d="M50.232,39.683h-0.739c-3.462,0-6.281-2.9-6.281-6.465
		c0-3.564,2.819-6.464,6.281-6.464h0.739c3.465,0,6.282,2.9,6.282,6.464C56.515,36.782,53.697,39.683,50.232,39.683z M50.232,29.795
		h-0.739c-1.833,0-3.324,1.535-3.324,3.422c0,1.888,1.491,3.423,3.324,3.423h0.739c1.834,0,3.326-1.535,3.326-3.423
		C53.559,31.331,52.066,29.795,50.232,29.795z M50.232,21.429h-0.739c-3.462,0-6.281-2.9-6.281-6.464
		c0-3.564,2.819-6.465,6.281-6.465h0.739c3.465,0,6.282,2.9,6.282,6.465C56.515,18.529,53.697,21.429,50.232,21.429z M50.232,11.542
		h-0.739c-1.833,0-3.324,1.535-3.324,3.423c0,1.887,1.491,3.422,3.324,3.422h0.739c1.834,0,3.326-1.535,3.326-3.422
		C53.559,13.077,52.066,11.542,50.232,11.542z M31.758,57.175h-0.74c-3.463,0-6.281-2.9-6.281-6.464
		c0-3.564,2.818-6.465,6.281-6.465h0.74c3.463,0,6.28,2.9,6.28,6.465C38.038,54.275,35.221,57.175,31.758,57.175z M31.758,47.288
		h-0.74c-1.834,0-3.325,1.535-3.325,3.423c0,1.887,1.491,3.422,3.325,3.422h0.74c1.833,0,3.324-1.535,3.324-3.422
		C35.082,48.823,33.591,47.288,31.758,47.288z M31.758,39.683h-0.74c-3.463,0-6.281-2.9-6.281-6.465
		c0-3.564,2.818-6.464,6.281-6.464h0.74c3.463,0,6.28,2.9,6.28,6.464C38.038,36.782,35.221,39.683,31.758,39.683z M31.758,29.795
		h-0.74c-1.834,0-3.325,1.535-3.325,3.422c0,1.888,1.491,3.423,3.325,3.423h0.74c1.833,0,3.324-1.535,3.324-3.423
		C35.082,31.331,33.591,29.795,31.758,29.795z M31.758,21.429h-0.74c-3.463,0-6.281-2.9-6.281-6.464
		c0-3.564,2.818-6.465,6.281-6.465h0.74c3.463,0,6.28,2.9,6.28,6.465C38.038,18.529,35.221,21.429,31.758,21.429z M31.758,11.542
		h-0.74c-1.834,0-3.325,1.535-3.325,3.423c0,1.887,1.491,3.422,3.325,3.422h0.74c1.833,0,3.324-1.535,3.324-3.422
		C35.082,13.077,33.591,11.542,31.758,11.542z M14.021,57.175h-0.74c-3.464,0-6.281-2.9-6.281-6.464
		c0-3.564,2.817-6.465,6.281-6.465h0.74c3.462,0,6.281,2.9,6.281,6.465C20.303,54.275,17.483,57.175,14.021,57.175z M14.021,47.288
		h-0.74c-1.834,0-3.325,1.535-3.325,3.423c0,1.887,1.491,3.422,3.325,3.422h0.74c1.833,0,3.324-1.535,3.324-3.422
		C17.346,48.823,15.854,47.288,14.021,47.288z M14.021,39.683h-0.74c-3.464,0-6.281-2.9-6.281-6.465
		c0-3.564,2.817-6.464,6.281-6.464h0.74c3.462,0,6.281,2.9,6.281,6.464C20.303,36.782,17.483,39.683,14.021,39.683z M14.021,29.795
		h-0.74c-1.834,0-3.325,1.535-3.325,3.422c0,1.888,1.491,3.423,3.325,3.423h0.74c1.833,0,3.324-1.535,3.324-3.423
		C17.346,31.331,15.854,29.795,14.021,29.795z M14.021,21.429h-0.74c-3.464,0-6.281-2.9-6.281-6.464C7,11.4,9.817,8.5,13.281,8.5
		h0.74c3.462,0,6.281,2.9,6.281,6.465C20.303,18.529,17.483,21.429,14.021,21.429z M14.021,11.542h-0.74
		c-1.834,0-3.325,1.535-3.325,3.423c0,1.887,1.491,3.422,3.325,3.422h0.74c1.833,0,3.324-1.535,3.324-3.422
		C17.346,13.077,15.854,11.542,14.021,11.542z M49.493,44.246h0.739c3.465,0,6.282,2.9,6.282,6.465c0,3.564-2.817,6.464-6.282,6.464
		h-0.739c-3.462,0-6.281-2.9-6.281-6.464C43.212,47.146,46.031,44.246,49.493,44.246z M49.493,54.133h0.739
		c1.834,0,3.326-1.535,3.326-3.422c0-1.888-1.492-3.423-3.326-3.423h-0.739c-1.833,0-3.324,1.535-3.324,3.423
		C46.169,52.598,47.66,54.133,49.493,54.133z"/>
</g>
</svg>
