<?xml version="1.0" encoding="utf-8"?>
<!-- Generator: Adobe Illustrator 16.0.0, SVG Export Plug-In . SVG Version: 6.00 Build 0)  -->
<!DOCTYPE svg PUBLIC "-//W3C//DTD SVG 1.1//EN" "http://www.w3.org/Graphics/SVG/1.1/DTD/svg11.dtd">
<svg version="1.1" id="图层_1" xmlns="http://www.w3.org/2000/svg" xmlns:xlink="http://www.w3.org/1999/xlink" x="0px" y="0px"
	 width="65px" height="65px" viewBox="0 0 65 65" enable-background="new 0 0 65 65" xml:space="preserve">
<g>
	<path fill-rule="evenodd" clip-rule="evenodd" fill="#122A88" d="M53.629,26.321c-0.158,0-0.313-0.006-0.467-0.014l-4.45,12.796
		c2.175,1.492,3.605,3.993,3.605,6.821c0,4.56-3.715,8.269-8.281,8.269c-4.564,0-8.279-3.709-8.279-8.269
		c0-2.027,0.734-3.884,1.951-5.323l-9.108-9.401c-1.463,1.297-3.387,2.088-5.494,2.088c-0.758,0-1.491-0.104-2.189-0.296
		l-4.448,9.488c1.148,1.419,1.837,3.223,1.837,5.186c0,4.56-3.714,8.269-8.28,8.269c-4.565,0-8.279-3.709-8.279-8.269
		s3.714-8.27,8.279-8.27c1.306,0,2.542,0.305,3.641,0.845l4.155-8.862c-1.828-1.519-2.994-3.805-2.994-6.36
		c0-4.559,3.715-8.27,8.279-8.27c4.567,0,8.281,3.71,8.281,8.27c0,1.183-0.251,2.306-0.701,3.324l9.797,10.113
		c1.077-0.514,2.283-0.803,3.553-0.803c0.492,0,0.974,0.046,1.442,0.129l4.315-12.408c-2.638-1.383-4.442-4.146-4.442-7.323
		c0-4.56,3.713-8.271,8.278-8.271c4.567,0,8.281,3.711,8.281,8.271C61.91,22.611,58.196,26.321,53.629,26.321z M10.024,42.881
		c-2.642,0-4.791,2.147-4.791,4.786c0,2.639,2.149,4.785,4.791,4.785c2.643,0,4.792-2.146,4.792-4.785
		C14.816,45.028,12.667,42.881,10.024,42.881z M23.105,20.233c-2.642,0-4.79,2.148-4.79,4.787c0,2.64,2.148,4.785,4.79,4.785
		c2.644,0,4.792-2.145,4.792-4.785C27.897,22.381,25.749,20.233,23.105,20.233z M39.245,45.925c0,2.638,2.149,4.785,4.791,4.785
		c2.643,0,4.793-2.146,4.793-4.785c0-2.639-2.15-4.786-4.793-4.786C41.394,41.139,39.245,43.286,39.245,45.925z M53.629,13.266
		c-2.643,0-4.791,2.146-4.791,4.787c0,2.639,2.148,4.784,4.791,4.784c2.642,0,4.792-2.145,4.792-4.784
		C58.422,15.413,56.271,13.266,53.629,13.266z"/>
</g>
<circle opacity="0.5" fill-rule="evenodd" clip-rule="evenodd" fill="#122A88" cx="22.67" cy="25.936" r="5.684"/>
</svg>
