<?xml version="1.0" encoding="utf-8"?>
<!-- Generator: Adobe Illustrator 16.0.0, SVG Export Plug-In . SVG Version: 6.00 Build 0)  -->
<!DOCTYPE svg PUBLIC "-//W3C//DTD SVG 1.1//EN" "http://www.w3.org/Graphics/SVG/1.1/DTD/svg11.dtd">
<svg version="1.1" id="图层_1" xmlns="http://www.w3.org/2000/svg" xmlns:xlink="http://www.w3.org/1999/xlink" x="0px" y="0px"
	 width="89.055px" height="16.181px" viewBox="0 0 89.055 16.181" enable-background="new 0 0 89.055 16.181" xml:space="preserve">
<g>
	<path fill="#FFFFFF" d="M12.469,2.474H2.048c-0.999,0-1.809,0.81-1.809,1.809v4.678c0,0.999,0.81,1.809,1.809,1.809h4.83
		l2.773,3.404l0.407-3.404h2.41c0.999,0,1.81-0.81,1.81-1.809V4.283C14.278,3.284,13.468,2.474,12.469,2.474z"/>
	<path fill="#8DC21F" d="M12.908,15.613l1.094-4.79h-2.275c-1.437,0-2.606-1.169-2.606-2.606V3.539c0-1.437,1.17-2.606,2.606-2.606
		h10.42c1.438,0,2.607,1.17,2.607,2.606v4.678c0,1.437-1.17,2.606-2.607,2.606h-3.668L12.908,15.613z M11.727,2.528
		c-0.558,0-1.012,0.454-1.012,1.011v4.678c0,0.558,0.454,1.011,1.012,1.011h4.275l-0.46,2.017l2.345-2.017h4.26
		c0.558,0,1.013-0.454,1.013-1.011V3.539c0-0.557-0.455-1.011-1.013-1.011H11.727z"/>
	<path fill="#FFFFFF" d="M64.284,9.208l-2.602-6.456h1.794l1.215,3.295l0.353,1.1c0.093-0.28,0.151-0.464,0.177-0.554
		c0.057-0.182,0.117-0.364,0.183-0.546l1.228-3.295h1.757l-2.565,6.456H64.284z"/>
	<rect x="69.699" y="2.752" fill="#FFFFFF" width="1.708" height="6.456"/>
	<path fill="#FFFFFF" d="M81.234,9.208l-2.042-6.456h1.659l1.21,4.23l1.112-4.23h1.647l1.076,4.23l1.234-4.23h1.684l-2.073,6.456
		h-1.641l-1.112-4.152l-1.095,4.152H81.234z"/>
	<path fill="#FFFFFF" d="M39.657,9.449c-1.856,0-3.367-1.511-3.367-3.367s1.511-3.368,3.367-3.368s3.367,1.511,3.367,3.368
		S41.514,9.449,39.657,9.449z M39.782,4.208c-1.013,0-1.838,0.861-1.838,1.919s0.825,1.918,1.838,1.918
		c1.015,0,1.839-0.861,1.839-1.918S40.797,4.208,39.782,4.208z"/>
	<rect x="41.558" y="2.92" fill="#FFFFFF" width="1.574" height="6.434"/>
	<g>
		<path fill="#FFFFFF" d="M48.097,5.42c0-0.362-0.092-0.642-0.279-0.839c-0.186-0.198-0.442-0.296-0.77-0.296
			c-0.33,0-0.588,0.1-0.773,0.301c-0.188,0.199-0.279,0.478-0.279,0.834v3.981h-1.898V5.512c0-0.32,0.06-0.688,0.178-1.104
			c0.072-0.258,0.207-0.509,0.405-0.752c0.196-0.243,0.414-0.431,0.652-0.563c0.237-0.132,0.533-0.22,0.887-0.266
			c0.354-0.043,0.682-0.066,0.98-0.066c0.518,0,0.961,0.073,1.33,0.219c0.267,0.104,0.52,0.284,0.763,0.54
			c0.241,0.256,0.419,0.556,0.532,0.899c0.113,0.342,0.171,0.707,0.171,1.092v3.889h-1.898V5.42z"/>
	</g>
	<g>
		<path fill="#FFFFFF" d="M52.229,5.42c0-0.362-0.092-0.642-0.279-0.839c-0.186-0.198-0.442-0.296-0.77-0.296
			c-0.33,0-0.589,0.1-0.773,0.301c-0.188,0.199-0.279,0.478-0.279,0.834v3.981h-1.897V5.512c0-0.32,0.059-0.688,0.177-1.104
			c0.072-0.258,0.207-0.509,0.404-0.752c0.197-0.243,0.415-0.431,0.653-0.563c0.236-0.132,0.533-0.22,0.887-0.266
			c0.354-0.043,0.681-0.066,0.98-0.066c0.518,0,0.961,0.073,1.329,0.219c0.267,0.104,0.521,0.284,0.764,0.54
			c0.241,0.256,0.419,0.556,0.532,0.899c0.113,0.342,0.171,0.707,0.171,1.092v3.889h-1.898V5.42z"/>
	</g>
	<path fill="#FFFFFF" d="M35.131,5.919c-0.36-0.3-0.996-0.553-1.906-0.76c-0.91-0.207-1.441-0.367-1.596-0.48
		c-0.113-0.085-0.17-0.188-0.17-0.31c0-0.142,0.064-0.258,0.195-0.347c0.194-0.125,0.516-0.188,0.966-0.188
		c0.356,0,0.632,0.067,0.824,0.201c0.099,0.068,0.182,0.154,0.248,0.253h1.746c-0.164-0.55-0.456-0.967-0.879-1.251
		c-0.43-0.287-1.086-0.431-1.97-0.431c-0.929,0-1.613,0.19-2.055,0.571c-0.442,0.38-0.663,0.851-0.663,1.41
		c0,0.62,0.256,1.104,0.767,1.453c0.368,0.252,1.242,0.529,2.62,0.833c0.295,0.069,0.486,0.144,0.571,0.225
		c0.081,0.084,0.122,0.193,0.122,0.322c0,0.19-0.075,0.342-0.226,0.455C33.504,8.039,33.171,8.12,32.73,8.12
		c-0.402,0-0.715-0.086-0.937-0.258c-0.158-0.122-0.276-0.286-0.358-0.488h-1.798c0.159,0.608,0.493,1.09,1.004,1.446
		c0.514,0.356,1.209,0.534,2.089,0.534c0.968,0,1.699-0.213,2.194-0.638c0.494-0.426,0.741-0.935,0.741-1.526
		C35.666,6.648,35.487,6.224,35.131,5.919z"/>
	<circle fill="#8DC21F" cx="70.552" cy="1.369" r="0.851"/>
	<g>
		<rect x="55.925" y="5.581" fill="#FFFFFF" width="4.864" height="1.002"/>
		<path fill="#FFFFFF" d="M59.711,7.504c-0.354,0.336-0.828,0.543-1.354,0.543c-1.085,0-1.966-0.879-1.966-1.965
			c0-1.085,0.881-1.965,1.966-1.965c1.086,0,1.965,0.879,1.965,1.965c0,0.174-0.023,0.341-0.066,0.501h1.387
			c0.023-0.164,0.041-0.331,0.041-0.501c0-1.836-1.489-3.325-3.326-3.325c-1.836,0-3.325,1.489-3.325,3.325s1.489,3.325,3.325,3.325
			c1.327,0,2.47-0.779,3.003-1.903H59.711z"/>
	</g>
	<g>
		<rect x="73.156" y="5.636" fill="#FFFFFF" width="4.864" height="1.002"/>
		<path fill="#FFFFFF" d="M76.942,7.56c-0.353,0.335-0.829,0.543-1.354,0.543c-1.086,0-1.966-0.88-1.966-1.965
			c0-1.086,0.88-1.965,1.966-1.965c1.085,0,1.965,0.879,1.965,1.965c0,0.174-0.024,0.341-0.067,0.501h1.385
			c0.025-0.164,0.043-0.331,0.043-0.501c0-1.836-1.489-3.326-3.325-3.326c-1.837,0-3.326,1.489-3.326,3.326
			c0,1.837,1.489,3.325,3.326,3.325c1.326,0,2.469-0.779,3.001-1.903H76.942z"/>
	</g>
</g>
</svg>
