<?xml version="1.0" encoding="utf-8"?>
<!-- Generator: Adobe Illustrator 16.0.0, SVG Export Plug-In . SVG Version: 6.00 Build 0)  -->
<!DOCTYPE svg PUBLIC "-//W3C//DTD SVG 1.1//EN" "http://www.w3.org/Graphics/SVG/1.1/DTD/svg11.dtd">
<svg version="1.1" id="图层_1" xmlns="http://www.w3.org/2000/svg" xmlns:xlink="http://www.w3.org/1999/xlink" x="0px" y="0px"
	 width="89.055px" height="17.347px" viewBox="0 0 89.055 17.347" enable-background="new 0 0 89.055 17.347" xml:space="preserve">
<g>
	<g>
		<path fill="#231815" d="M66.758,8.842l-2.365-5.867h1.631l1.105,2.994l0.32,1c0.084-0.254,0.138-0.422,0.16-0.503
			c0.051-0.165,0.106-0.331,0.166-0.497l1.115-2.994h1.598l-2.332,5.867H66.758z"/>
		<rect x="71.68" y="2.975" fill="#231815" width="1.552" height="5.867"/>
		<path fill="#231815" d="M82.165,8.842l-1.855-5.867h1.508l1.1,3.845l1.011-3.845h1.498l0.978,3.845l1.122-3.845h1.53L87.17,8.842
			h-1.491l-1.011-3.773l-0.995,3.773H82.165z"/>
		<path fill="#231815" d="M44.375,9.061c-1.687,0-3.061-1.373-3.061-3.06c0-1.688,1.374-3.062,3.061-3.062
			c1.688,0,3.06,1.374,3.06,3.062C47.435,7.688,46.063,9.061,44.375,9.061z M44.489,4.297c-0.921,0-1.67,0.782-1.67,1.744
			c0,0.961,0.75,1.744,1.67,1.744c0.921,0,1.671-0.783,1.671-1.744C46.16,5.079,45.41,4.297,44.489,4.297z"/>
		<rect x="46.103" y="3.127" fill="#231815" width="1.43" height="5.848"/>
		<g>
			<path fill="#231815" d="M52.046,5.398c0-0.329-0.085-0.583-0.254-0.762c-0.169-0.18-0.402-0.27-0.7-0.27
				c-0.3,0-0.535,0.091-0.704,0.273c-0.169,0.182-0.253,0.435-0.253,0.758v3.619h-1.725V5.483c0-0.292,0.054-0.626,0.16-1.004
				c0.066-0.234,0.188-0.463,0.368-0.684s0.377-0.392,0.594-0.511c0.216-0.12,0.485-0.2,0.806-0.241
				c0.322-0.04,0.619-0.061,0.891-0.061c0.47,0,0.874,0.066,1.209,0.198c0.242,0.095,0.473,0.258,0.693,0.491
				c0.22,0.233,0.381,0.506,0.484,0.816c0.103,0.312,0.154,0.643,0.154,0.994v3.534h-1.724V5.398z"/>
		</g>
		<g>
			<path fill="#231815" d="M55.801,5.398c0-0.329-0.084-0.583-0.254-0.762c-0.169-0.18-0.402-0.27-0.699-0.27
				c-0.301,0-0.536,0.091-0.704,0.273c-0.169,0.182-0.254,0.435-0.254,0.758v3.619h-1.724V5.483c0-0.292,0.053-0.626,0.16-1.004
				c0.066-0.234,0.189-0.463,0.368-0.684s0.377-0.392,0.593-0.511c0.216-0.12,0.485-0.2,0.806-0.241
				c0.322-0.04,0.619-0.061,0.891-0.061c0.471,0,0.874,0.066,1.209,0.198c0.242,0.095,0.473,0.258,0.693,0.491
				c0.22,0.233,0.381,0.506,0.484,0.816c0.103,0.312,0.155,0.643,0.155,0.994v3.534h-1.725V5.398z"/>
		</g>
		<path fill="#231815" d="M40.261,5.853c-0.328-0.272-0.906-0.503-1.733-0.69c-0.827-0.188-1.31-0.333-1.45-0.437
			c-0.103-0.077-0.155-0.171-0.155-0.282c0-0.129,0.059-0.233,0.177-0.314c0.177-0.114,0.47-0.172,0.879-0.172
			c0.324,0,0.574,0.062,0.749,0.183c0.09,0.063,0.165,0.141,0.225,0.23h1.588c-0.149-0.499-0.415-0.879-0.799-1.137
			c-0.391-0.261-0.987-0.392-1.791-0.392c-0.844,0-1.466,0.173-1.867,0.52c-0.402,0.346-0.603,0.773-0.603,1.281
			c0,0.563,0.232,1.004,0.696,1.321c0.335,0.229,1.129,0.48,2.381,0.757c0.269,0.063,0.442,0.13,0.52,0.204
			c0.074,0.077,0.11,0.175,0.11,0.293c0,0.173-0.068,0.312-0.205,0.414c-0.203,0.147-0.504,0.222-0.906,0.222
			c-0.365,0-0.648-0.078-0.851-0.235c-0.144-0.11-0.251-0.26-0.326-0.443h-1.634c0.145,0.553,0.448,0.99,0.913,1.313
			c0.466,0.324,1.098,0.486,1.898,0.486c0.88,0,1.545-0.193,1.995-0.58c0.449-0.387,0.674-0.85,0.674-1.387
			C40.747,6.515,40.585,6.13,40.261,5.853z"/>
		<circle fill="#8DC21F" cx="72.456" cy="1.717" r="0.774"/>
		<g>
			<rect x="59.161" y="5.545" fill="#231815" width="4.422" height="0.911"/>
			<path fill="#231815" d="M62.602,7.293c-0.321,0.305-0.754,0.493-1.231,0.493c-0.986,0-1.786-0.799-1.786-1.786
				c0-0.986,0.8-1.786,1.786-1.786c0.987,0,1.786,0.8,1.786,1.786c0,0.158-0.021,0.311-0.061,0.456h1.26
				c0.021-0.149,0.037-0.301,0.037-0.455c0-1.67-1.353-3.022-3.022-3.022c-1.669,0-3.022,1.353-3.022,3.022
				c0,1.669,1.353,3.021,3.022,3.021c1.206,0,2.245-0.708,2.729-1.729H62.602z"/>
		</g>
		<g>
			<rect x="74.822" y="5.596" fill="#231815" width="4.422" height="0.911"/>
			<path fill="#231815" d="M78.263,7.344c-0.32,0.305-0.753,0.493-1.23,0.493c-0.987,0-1.786-0.8-1.786-1.786
				s0.799-1.786,1.786-1.786s1.786,0.8,1.786,1.786c0,0.157-0.022,0.31-0.061,0.456h1.26c0.021-0.149,0.037-0.301,0.037-0.456
				c0-1.669-1.354-3.022-3.022-3.022S74.01,4.382,74.01,6.051s1.354,3.022,3.022,3.022c1.206,0,2.244-0.708,2.729-1.729H78.263z"/>
		</g>
	</g>
	<path fill="#8DC21F" d="M14.45,1.822H2.138C0.957,1.822,0,2.779,0,3.96v5.527c0,1.18,0.957,2.137,2.138,2.137h5.706l3.278,4.021
		l0.481-4.021h2.848c1.181,0,2.137-0.957,2.137-2.137V3.96C16.587,2.779,15.631,1.822,14.45,1.822z"/>
	<path fill="#182987" d="M14.969,17.347l1.292-5.659h-2.688c-1.699,0-3.08-1.382-3.08-3.08V3.08c0-1.698,1.381-3.08,3.08-3.08
		h12.312c1.699,0,3.08,1.382,3.08,3.08v5.527c0,1.698-1.381,3.08-3.08,3.08h-4.334L14.969,17.347z M13.573,1.886
		c-0.659,0-1.195,0.535-1.195,1.194v5.527c0,0.659,0.536,1.194,1.195,1.194h5.052l-0.544,2.384l2.771-2.384h5.033
		c0.659,0,1.195-0.535,1.195-1.194V3.08c0-0.659-0.536-1.194-1.195-1.194H13.573z"/>
</g>
</svg>
