<?xml version="1.0" encoding="utf-8"?>
<!-- Generator: Adobe Illustrator 16.0.0, SVG Export Plug-In . SVG Version: 6.00 Build 0)  -->
<!DOCTYPE svg PUBLIC "-//W3C//DTD SVG 1.1//EN" "http://www.w3.org/Graphics/SVG/1.1/DTD/svg11.dtd">
<svg version="1.1" id="图层_1" xmlns="http://www.w3.org/2000/svg" xmlns:xlink="http://www.w3.org/1999/xlink" x="0px" y="0px"
	 width="65px" height="65px" viewBox="0 0 65 65" enable-background="new 0 0 65 65" xml:space="preserve">
<g>
	<path fill-rule="evenodd" clip-rule="evenodd" fill="#122A88" d="M63.191,21.363L39.078,45.32
		c-0.873,0.874-6.448,4.373-6.448,4.373s3.341-5.575,4.215-6.449l24.113-23.958c0.874-0.874,2.289-1.957,3.163-1.085
		C64.993,19.074,64.063,20.491,63.191,21.363L63.191,21.363z M45.259,26.742c0,1.646-1.335,2.981-2.981,2.981
		c-1.646,0-2.981-1.336-2.981-2.981c0-1.646,1.335-2.981,2.981-2.981C43.924,23.761,45.259,25.096,45.259,26.742L45.259,26.742z
		 M13.958,37.175c-1.646,0-2.98-1.335-2.98-2.98s1.335-2.981,2.98-2.981c1.646,0,2.981,1.336,2.981,2.981
		S15.604,37.175,13.958,37.175L13.958,37.175z M18.43,26.742c0-1.646,1.335-2.981,2.98-2.981c1.646,0,2.981,1.335,2.981,2.981
		c0,1.646-1.335,2.981-2.981,2.981C19.765,29.724,18.43,28.389,18.43,26.742L18.43,26.742z M29.403,14.82
		C15.896,16.326,3.375,26.788,3.375,40.576c0,4.97,2.748,4.595,7.567,3.989c3.214-0.404,7.216,1.058,7.87,6.382
		c0.402,3.251,4.783,5.761,11.392,5.761c12.151,0,23.431-9.223,25.204-20.92c0.058-0.384,0.06-0.738,0.095-1.111l3.146-3.145
		c0.039,1.1,0.014,2.228-0.132,3.41c-1.583,12.715-12.809,24.594-28.112,24.594c-5.902,0-12.743-2.348-13.805-5.938
		c-0.908-3.074-1.253-7.448-5.625-6.45C5.5,48.396,0.685,46.56,0.542,41.65C0.035,24.126,14.096,13.767,29.609,11.991
		c9.696-1.107,19.633,2.045,25.013,8.671l-2.187,2.185C47.634,16.52,38.199,13.842,29.403,14.82L29.403,14.82z"/>
</g>
<circle opacity="0.5" fill-rule="evenodd" clip-rule="evenodd" fill="#122A88" cx="32.5" cy="25" r="3"/>
</svg>
