<?xml version="1.0" encoding="utf-8"?>
<!-- Generator: Adobe Illustrator 16.0.0, SVG Export Plug-In . SVG Version: 6.00 Build 0)  -->
<!DOCTYPE svg PUBLIC "-//W3C//DTD SVG 1.1//EN" "http://www.w3.org/Graphics/SVG/1.1/DTD/svg11.dtd">
<svg version="1.1" id="图层_1" xmlns="http://www.w3.org/2000/svg" xmlns:xlink="http://www.w3.org/1999/xlink" x="0px" y="0px"
	 width="89.055px" height="17.348px" viewBox="0 0 89.055 17.348" enable-background="new 0 0 89.055 17.348" xml:space="preserve">
<g>
	<g>
		<path fill="#036EB7" d="M9.201,0.044c0.256,0,0.508,0.066,0.757,0.199s0.446,0.325,0.59,0.576c0.145,0.251,0.217,0.515,0.217,0.79
			c-0.005,0.28-0.077,0.542-0.217,0.786c-0.14,0.244-0.33,0.436-0.568,0.576C9.74,3.11,9.482,3.177,9.201,3.173
			c-0.285,0-0.546-0.069-0.785-0.207C8.177,2.829,7.987,2.638,7.847,2.394C7.707,2.15,7.635,1.889,7.633,1.612
			s0.069-0.54,0.214-0.786c0.145-0.256,0.342-0.449,0.59-0.58C8.686,0.116,8.941,0.049,9.201,0.044z"/>
		<path fill="#036EB7" d="M5.74,6.446C6.062,4.83,7.49,3.609,9.199,3.609c1.708,0,3.137,1.221,3.459,2.836h1.976
			c-0.342-2.696-2.648-4.789-5.435-4.789c-2.787,0-5.094,2.092-5.435,4.789H5.74z"/>
	</g>
	<g>
		<path fill="#036EB7" d="M0.188,15.221C0.065,14.997,0.003,14.743,0,14.462c-0.002-0.282,0.072-0.547,0.223-0.794
			c0.151-0.247,0.347-0.438,0.589-0.568c0.248-0.13,0.513-0.192,0.794-0.186c0.281,0.006,0.541,0.08,0.778,0.223
			s0.421,0.339,0.551,0.587c0.137,0.25,0.201,0.513,0.195,0.788c-0.006,0.276-0.083,0.534-0.23,0.773
			c-0.146,0.24-0.341,0.428-0.584,0.563c-0.242,0.135-0.507,0.197-0.792,0.188c-0.294-0.005-0.558-0.084-0.792-0.241
			C0.498,15.638,0.317,15.448,0.188,15.221z"/>
		<path fill="#036EB7" d="M7.466,15.195c-1.573,0.49-3.329-0.179-4.147-1.68c-0.818-1.499-0.43-3.339,0.833-4.395L3.206,7.386
			c-2.204,1.591-2.936,4.617-1.601,7.063c1.335,2.447,4.276,3.47,6.806,2.479L7.466,15.195z"/>
	</g>
	<g>
		<path fill="#036EB7" d="M17.689,15.523c-0.133,0.218-0.321,0.399-0.564,0.542c-0.242,0.144-0.509,0.211-0.798,0.204
			c-0.29-0.007-0.552-0.082-0.788-0.226c-0.236-0.15-0.422-0.349-0.557-0.595c-0.136-0.247-0.201-0.509-0.196-0.785
			c0.005-0.277,0.083-0.534,0.233-0.771c0.148-0.243,0.343-0.432,0.585-0.563c0.243-0.133,0.504-0.195,0.785-0.188
			c0.281,0.008,0.541,0.083,0.779,0.225c0.239,0.144,0.425,0.341,0.56,0.592c0.143,0.258,0.206,0.525,0.188,0.806
			C17.896,15.046,17.821,15.298,17.689,15.523z"/>
		<path fill="#036EB7" d="M14.028,9.233c1.211,1.116,1.509,2.973,0.619,4.431c-0.89,1.459-2.677,2.043-4.224,1.477l-1.029,1.687
			c2.479,1.112,5.467,0.233,6.918-2.146c1.452-2.379,0.868-5.438-1.256-7.133L14.028,9.233z"/>
	</g>
	<circle fill="#036EB7" cx="9.302" cy="10.31" r="2.045"/>
</g>
<g>
	<path fill="#231815" d="M28.838,11.363H22.01c-0.111,0-0.207,0.039-0.284,0.119c-0.077,0.08-0.114,0.178-0.111,0.293
		s0.045,0.21,0.124,0.283c0.078,0.073,0.169,0.11,0.271,0.11h6.828c0.09,0,0.175-0.034,0.253-0.103
		c0.079-0.068,0.124-0.16,0.134-0.275c0.006-0.115-0.031-0.218-0.111-0.302C29.034,11.405,28.942,11.363,28.838,11.363z"/>
	<path fill="#231815" d="M22.389,6.337h6.126c0.092,0,0.178-0.039,0.255-0.114c0.077-0.075,0.117-0.172,0.121-0.289
		c0-0.113-0.039-0.209-0.113-0.286C28.701,5.57,28.614,5.53,28.515,5.53h-6.126c-0.106,0-0.2,0.042-0.276,0.124
		c-0.077,0.082-0.115,0.18-0.113,0.29c0.002,0.113,0.042,0.208,0.122,0.281C22.2,6.3,22.29,6.337,22.389,6.337z"/>
	<path fill="#231815" d="M28.238,8.372h-5.57c-0.099,0-0.186,0.04-0.259,0.12c-0.072,0.078-0.107,0.175-0.105,0.288
		c0.001,0.114,0.041,0.209,0.115,0.285c0.076,0.076,0.16,0.113,0.249,0.113h5.57c0.096,0,0.182-0.039,0.258-0.119
		c0.075-0.078,0.112-0.176,0.111-0.289c-0.002-0.113-0.039-0.208-0.111-0.284C28.422,8.409,28.336,8.372,28.238,8.372z"/>
	<path fill="#231815" d="M37.21,11.645c-0.183-0.142-0.438-0.371-0.76-0.682c-0.32-0.31-0.587-0.631-0.795-0.956
		c-0.21-0.328-0.393-0.645-0.543-0.939c-0.149-0.294-0.272-0.567-0.363-0.811c-0.092-0.244-0.19-0.578-0.294-0.996
		c-0.103-0.416-0.166-0.806-0.187-1.157l-0.021-0.683c-0.006-0.104-0.022-0.186-0.05-0.249c-0.03-0.069-0.084-0.127-0.159-0.17
		c-0.074-0.044-0.15-0.063-0.24-0.056c-0.146,0.012-0.257,0.073-0.333,0.179c-0.073,0.103-0.107,0.265-0.103,0.497
		c0.004,0.209-0.01,0.478-0.042,0.797c-0.032,0.32-0.075,0.639-0.128,0.946c-0.053,0.303-0.165,0.657-0.334,1.052
		c-0.17,0.398-0.323,0.715-0.454,0.943c-0.131,0.228-0.319,0.497-0.558,0.799c-0.239,0.3-0.503,0.56-0.789,0.771
		c-0.287,0.213-0.562,0.396-0.817,0.541c-0.353,0.202-0.43,0.266-0.458,0.299c-0.083,0.093-0.121,0.211-0.117,0.348
		c0.007,0.185,0.098,0.261,0.174,0.292c0.092,0.038,0.184,0.052,0.257,0.048c0.211-0.015,0.631-0.239,1.284-0.686
		c0.641-0.439,1.121-0.914,1.427-1.411c0.303-0.49,0.521-0.88,0.646-1.158c0.109-0.241,0.235-0.535,0.383-0.891
		c0.286,0.668,0.474,1.087,0.572,1.277c0.105,0.203,0.264,0.471,0.473,0.796c0.209,0.326,0.43,0.623,0.658,0.883
		c0.226,0.258,0.523,0.565,0.885,0.911c0.379,0.364,0.681,0.541,0.921,0.541h0.013c0.12,0,0.217-0.04,0.289-0.12
		c0.069-0.076,0.108-0.158,0.118-0.245c0.013-0.15-0.035-0.274-0.14-0.371C37.536,11.904,37.395,11.789,37.21,11.645z"/>
	<path fill="#231815" d="M41.516,10.58l-0.379-0.367c-0.164-0.155-0.284-0.255-0.367-0.306c-0.09-0.055-0.169-0.081-0.246-0.081l0,0
		c-0.097,0.004-0.179,0.04-0.244,0.107c-0.066,0.07-0.095,0.148-0.085,0.235c0.008,0.079,0.036,0.148,0.083,0.208
		c0.041,0.05,0.119,0.134,0.235,0.253l0.273,0.298c0.014,0.016,0.033,0.034,0.055,0.058c-0.541,0.266-1.145,0.461-1.794,0.581v-2.53
		h2.072c0.215,0,0.372-0.034,0.479-0.105c0.105-0.07,0.185-0.159,0.239-0.268c0.053-0.106,0.08-0.224,0.08-0.352v-2.26
		c0-0.236-0.06-0.41-0.178-0.519c-0.117-0.106-0.297-0.161-0.536-0.161H39.06c-0.344,0-0.559,0.1-0.641,0.296
		c-0.074,0.179-0.108,0.323-0.106,0.441v5.164c0,0.175-0.031,0.26-0.055,0.296l-0.07,0.096c-0.04,0.06-0.062,0.124-0.064,0.188
		c-0.01,0.118,0.032,0.234,0.123,0.346c0.084,0.104,0.234,0.154,0.456,0.154c0.028,0,0.057,0,0.087-0.002
		c0.182-0.006,0.5-0.069,0.972-0.194c0.45-0.118,0.946-0.313,1.477-0.577c0.107,0.138,0.181,0.229,0.228,0.278
		c0.063,0.066,0.147,0.103,0.249,0.109c0.134,0.014,0.236-0.024,0.302-0.11c0.061-0.078,0.092-0.178,0.09-0.296
		c-0.002-0.114-0.061-0.265-0.182-0.458C41.811,10.919,41.674,10.744,41.516,10.58z M39.048,6.904V6.312
		c0-0.081,0.015-0.138,0.043-0.164c0.013-0.013,0.061-0.042,0.208-0.042h1.677c0.113,0.003,0.155,0.027,0.17,0.041
		c0.011,0.011,0.038,0.049,0.038,0.17v0.586H39.048z M41.184,7.594v0.492c0,0.144-0.028,0.197-0.045,0.215
		c-0.002,0.002-0.047,0.047-0.352,0.047h-1.412c-0.24,0-0.284-0.035-0.289-0.038s-0.039-0.04-0.039-0.224V7.594H41.184z"/>
	<path fill="#231815" d="M45.173,5.482c-0.124-0.062-0.275-0.093-0.451-0.093h-1.377c-0.317,0-0.517,0.049-0.61,0.15
		c-0.085,0.092-0.144,0.186-0.174,0.279c-0.028,0.089-0.043,0.188-0.043,0.293v6.158c0,0.111,0.037,0.21,0.107,0.29
		c0.072,0.081,0.157,0.123,0.253,0.123h0.006c0.097-0.002,0.184-0.044,0.258-0.125c0.072-0.079,0.109-0.177,0.109-0.288V6.742
		c-0.002-0.11,0-0.201,0.008-0.271c0.007-0.063,0.026-0.125,0.058-0.185c0.029-0.052,0.125-0.063,0.201-0.063h0.896
		c0.253,0,0.298,0.043,0.303,0.048c0.034,0.038,0.058,0.098,0.073,0.176c0.017,0.087,0.026,0.173,0.026,0.256v4.011
		c0,0.181-0.027,0.351-0.079,0.503c-0.042,0.12-0.166,0.123-0.38,0.038c-0.266-0.106-0.438-0.171-0.527-0.195
		c-0.099-0.028-0.185-0.03-0.262-0.002c-0.085,0.033-0.147,0.095-0.187,0.183c-0.04,0.089-0.032,0.201,0.023,0.345
		c0.056,0.146,0.233,0.259,0.542,0.345c0.271,0.076,0.497,0.115,0.675,0.115l0.035-0.001c0.363-0.006,0.607-0.129,0.727-0.366
		c0.111-0.222,0.167-0.434,0.167-0.629V6.267c0-0.257-0.029-0.433-0.092-0.536C45.395,5.629,45.299,5.545,45.173,5.482z
		 M42.878,12.61L42.878,12.61L42.878,12.61L42.878,12.61z"/>
	<path fill="#231815" d="M51.158,9.879c0.019,0.005,0.037,0.007,0.057,0.007c0.082,0,0.167-0.042,0.249-0.125
		c0.056-0.055,0.088-0.135,0.096-0.238c0.009-0.106-0.048-0.231-0.173-0.385l-0.444-0.512c-0.101-0.111-0.227-0.241-0.376-0.384
		c-0.163-0.157-0.294-0.238-0.403-0.248c-0.21-0.013-0.303,0.076-0.341,0.15c-0.051,0.101-0.058,0.203-0.021,0.307
		c0.033,0.097,0.12,0.212,0.264,0.353c0.134,0.131,0.219,0.215,0.256,0.254c0.037,0.038,0.162,0.177,0.371,0.416
		C50.986,9.804,51.095,9.865,51.158,9.879z"/>
	<path fill="#231815" d="M53.783,7.021h-1.008V5.433c0-0.099-0.036-0.188-0.106-0.263s-0.155-0.117-0.255-0.12
		c-0.102,0-0.19,0.038-0.264,0.112c-0.072,0.074-0.108,0.166-0.108,0.271v1.588h-2.297c-0.109,0-0.202,0.039-0.273,0.116
		c-0.071,0.076-0.105,0.166-0.104,0.269c0.001,0.104,0.041,0.19,0.118,0.255c0.073,0.063,0.159,0.094,0.259,0.094h2.297v3.68
		c0,0.155-0.033,0.223-0.062,0.252c-0.042,0.044-0.112,0.073-0.212,0.087c-0.103,0.015-0.229,0.014-0.377-0.004
		c-0.167-0.021-0.271-0.024-0.342-0.006c-0.068,0.02-0.137,0.065-0.202,0.135c-0.075,0.081-0.089,0.198-0.042,0.35
		c0.048,0.154,0.196,0.245,0.44,0.27c0.115,0.012,0.235,0.019,0.354,0.019c0.104,0,0.211-0.005,0.317-0.014
		c0.357-0.029,0.571-0.107,0.653-0.242c0.073-0.116,0.126-0.233,0.156-0.345c0.032-0.114,0.048-0.278,0.048-0.501v-3.68h1.008
		c0.08,0,0.154-0.031,0.223-0.091c0.069-0.062,0.108-0.15,0.115-0.264c0.004-0.104-0.029-0.193-0.098-0.267
		C53.955,7.059,53.873,7.021,53.783,7.021z"/>
	<path fill="#231815" d="M48.744,5.533c-0.155-0.061-0.306-0.092-0.446-0.092h-0.78c-0.377,0-0.613,0.103-0.701,0.305
		c-0.079,0.182-0.119,0.35-0.119,0.5v4.848c0,0.188,0.035,0.391,0.104,0.606c0.077,0.242,0.345,0.364,0.794,0.364h0.735
		c0.299,0,0.501-0.076,0.601-0.225c0.089-0.135,0.15-0.264,0.18-0.385c0.029-0.118,0.044-0.239,0.044-0.361V6.246
		c0-0.11-0.025-0.238-0.076-0.38C49.024,5.711,48.91,5.599,48.744,5.533z M48.422,8.936v1.969c0,0.079-0.006,0.153-0.021,0.219
		c-0.013,0.059-0.036,0.111-0.069,0.155c-0.013,0.015-0.058,0.051-0.22,0.051h-0.371c-0.22,0-0.263-0.043-0.269-0.052
		c-0.032-0.043-0.053-0.1-0.061-0.166c-0.01-0.077-0.013-0.155-0.013-0.235V8.936H48.422z M47.4,8.203V6.495
		c0-0.174,0.033-0.239,0.054-0.262c0.016-0.018,0.074-0.058,0.276-0.058h0.428c0.12,0,0.192,0.028,0.216,0.083
		c0.033,0.075,0.049,0.155,0.049,0.237v1.708H47.4z"/>
	<path fill="#231815" d="M62.299,12.02c-0.057-0.061-0.144-0.092-0.274-0.092h-0.001c-0.192,0.004-0.403,0.002-0.635-0.006
		c-0.236-0.009-0.623-0.014-1.148-0.014c-0.533-0.002-1.1-0.011-1.686-0.027c-0.584-0.016-0.976-0.045-1.163-0.086
		c-0.184-0.042-0.354-0.107-0.508-0.194c-0.15-0.086-0.264-0.178-0.337-0.273c-0.073-0.097-0.127-0.189-0.156-0.275
		s-0.045-0.238-0.045-0.452V8.344c0-0.128-0.008-0.239-0.024-0.333c-0.018-0.1-0.041-0.174-0.072-0.229
		c-0.034-0.061-0.106-0.116-0.218-0.171c-0.107-0.051-0.245-0.078-0.41-0.078h-0.758c-0.084,0-0.159,0.031-0.224,0.093
		c-0.065,0.062-0.101,0.141-0.103,0.236c-0.004,0.099,0.027,0.186,0.091,0.256c0.065,0.073,0.145,0.109,0.235,0.109h0.479
		c0.199,0,0.237,0.025,0.24,0.029c0.025,0.021,0.042,0.044,0.049,0.069c0.004,0.02,0.013,0.074,0.013,0.22v2.172
		c0,0.118-0.021,0.225-0.065,0.317c-0.03,0.066-0.126,0.204-0.405,0.49c-0.31,0.317-0.366,0.379-0.381,0.398
		c-0.079,0.104-0.114,0.197-0.107,0.282c0.008,0.088,0.039,0.155,0.097,0.203c0.053,0.045,0.125,0.068,0.226,0.068l0,0
		c0.091-0.002,0.176-0.03,0.257-0.083c0.072-0.049,0.136-0.102,0.188-0.157c0.048-0.051,0.209-0.219,0.484-0.508
		c0.179,0.185,0.339,0.322,0.475,0.41c0.148,0.095,0.313,0.175,0.486,0.236c0.177,0.063,0.452,0.11,0.842,0.145
		c0.379,0.034,0.96,0.054,1.727,0.058c0.768,0.004,1.312,0.008,1.634,0.014c0.323,0.006,0.516,0.009,0.577,0.009h0.031
		c0.28,0,0.448-0.038,0.526-0.119c0.079-0.08,0.12-0.15,0.129-0.218C62.373,12.161,62.351,12.079,62.299,12.02z"/>
	<path fill="#231815" d="M55.367,6.117c0.058,0.104,0.117,0.237,0.177,0.393c0.023,0.063,0.048,0.118,0.073,0.164
		c0.035,0.06,0.102,0.105,0.194,0.13c0.033,0.011,0.066,0.017,0.102,0.017c0.062,0,0.125-0.018,0.189-0.052
		c0.106-0.057,0.163-0.153,0.165-0.277c0.002-0.11-0.03-0.236-0.097-0.387c-0.063-0.143-0.129-0.271-0.193-0.382
		c-0.065-0.112-0.141-0.223-0.225-0.331c-0.091-0.116-0.159-0.183-0.219-0.214c-0.101-0.046-0.21-0.043-0.318,0.011
		c-0.112,0.055-0.177,0.134-0.19,0.234c-0.015,0.095,0.027,0.21,0.127,0.352C55.238,5.897,55.311,6.012,55.367,6.117z"/>
	<path fill="#231815" d="M57.278,5.841h0.554c-0.004,0.003-0.009,0.007-0.013,0.011c-0.092,0.087-0.135,0.166-0.134,0.24
		c0.002,0.065,0.025,0.133,0.068,0.2c0.043,0.068,0.134,0.137,0.275,0.213l0.302,0.156c0.127,0.067,0.276,0.151,0.445,0.251h-0.762
		c-0.187,0-0.351,0.021-0.49,0.065c-0.147,0.046-0.246,0.099-0.303,0.163c-0.054,0.062-0.098,0.147-0.132,0.261
		c-0.033,0.11-0.05,0.267-0.05,0.478v3.2c0,0.096,0.035,0.177,0.103,0.244c0.066,0.064,0.147,0.097,0.249,0.097l0,0
		c0.099-0.001,0.182-0.037,0.248-0.104c0.068-0.068,0.102-0.147,0.102-0.237v-1.02h1.273v1.008c0,0.094,0.035,0.173,0.102,0.237
		c0.063,0.061,0.141,0.092,0.23,0.092l0.021-0.001c0.098-0.005,0.178-0.041,0.238-0.105s0.092-0.14,0.092-0.223V10.06h1.467v0.665
		c0,0.142-0.02,0.188-0.027,0.202c-0.02,0.031-0.042,0.054-0.07,0.069c-0.012,0.008-0.051,0.022-0.17,0.022l-0.067,0.001
		c-0.127,0-0.242-0.007-0.343-0.021c-0.19-0.024-0.198-0.023-0.211-0.024c-0.266,0.004-0.313,0.172-0.317,0.27
		c-0.007,0.097,0.044,0.198,0.152,0.301c0.107,0.104,0.335,0.151,0.714,0.151h0.028c0.38,0,0.62-0.057,0.734-0.176
		c0.109-0.114,0.178-0.22,0.211-0.322c0.031-0.099,0.048-0.222,0.048-0.364V7.724c0-0.126-0.015-0.238-0.042-0.333
		c-0.028-0.099-0.085-0.201-0.17-0.306c-0.097-0.117-0.337-0.172-0.759-0.172h-0.819c0.517-0.227,0.892-0.4,1.119-0.517
		c0.258-0.133,0.453-0.316,0.58-0.542c0.056-0.098,0.076-0.231,0.063-0.398c-0.021-0.265-0.436-0.296-0.746-0.296H57.27
		c-0.101,0-0.186,0.035-0.257,0.103c-0.071,0.07-0.105,0.152-0.103,0.246c0.004,0.092,0.04,0.171,0.107,0.235
		C57.085,5.808,57.172,5.841,57.278,5.841z M60.548,5.945c-0.164,0.087-0.342,0.176-0.528,0.262
		c-0.177,0.082-0.396,0.164-0.648,0.245c-0.399-0.245-0.728-0.428-0.977-0.543c-0.06-0.027-0.114-0.05-0.165-0.068h2.427
		c0.021,0,0.037,0.002,0.049,0.007C60.683,5.866,60.638,5.898,60.548,5.945z M61.163,8.747v0.637h-1.467V8.747H61.163z M61.163,8.07
		h-1.467V7.521h1.126c0.182,0,0.239,0.025,0.256,0.037c0.033,0.022,0.056,0.05,0.065,0.083c0.009,0.03,0.02,0.09,0.02,0.211V8.07z
		 M59.014,7.521V8.07H57.74V7.803c0-0.124,0.026-0.206,0.07-0.231c0.041-0.023,0.131-0.051,0.321-0.051H59.014z M59.014,8.747v0.637
		H57.74V8.747H59.014z"/>
</g>
</svg>
