<?xml version="1.0" encoding="utf-8"?>
<!-- Generator: Adobe Illustrator 16.0.0, SVG Export Plug-In . SVG Version: 6.00 Build 0)  -->
<!DOCTYPE svg PUBLIC "-//W3C//DTD SVG 1.1//EN" "http://www.w3.org/Graphics/SVG/1.1/DTD/svg11.dtd">
<svg version="1.1" id="图层_1" xmlns="http://www.w3.org/2000/svg" xmlns:xlink="http://www.w3.org/1999/xlink" x="0px" y="0px"
	 width="89.055px" height="16.182px" viewBox="0 0 89.055 16.182" enable-background="new 0 0 89.055 16.182" xml:space="preserve">
<g>
	<g>
		<path fill="#FFFFFF" d="M8.618-0.005c0.24,0,0.477,0.063,0.709,0.187C9.56,0.306,9.743,0.486,9.88,0.721
			c0.135,0.236,0.204,0.481,0.204,0.74c-0.005,0.262-0.073,0.507-0.204,0.736c-0.131,0.228-0.309,0.407-0.533,0.54
			C9.123,2.868,8.881,2.93,8.618,2.926c-0.267,0-0.512-0.065-0.736-0.193C7.658,2.604,7.48,2.425,7.349,2.197
			c-0.131-0.229-0.198-0.472-0.2-0.732s0.064-0.506,0.2-0.736c0.136-0.239,0.32-0.421,0.554-0.543
			C8.135,0.063,8.374-0.001,8.618-0.005z"/>
		<path fill="#FFFFFF" d="M5.376,5.99c0.302-1.512,1.64-2.656,3.24-2.656c1.601,0,2.939,1.144,3.241,2.656h1.85
			c-0.319-2.524-2.48-4.484-5.091-4.484S3.845,3.466,3.526,5.99H5.376z"/>
	</g>
	<g>
		<path fill="#FFFFFF" d="M0.177,14.211C0.061,14.002,0.003,13.762,0,13.5c-0.002-0.264,0.067-0.513,0.209-0.744
			s0.326-0.409,0.552-0.532c0.232-0.122,0.48-0.18,0.743-0.174c0.264,0.006,0.506,0.075,0.729,0.209
			c0.222,0.133,0.394,0.317,0.515,0.55c0.128,0.233,0.189,0.48,0.183,0.738c-0.005,0.258-0.078,0.5-0.215,0.724
			c-0.138,0.225-0.32,0.4-0.547,0.526c-0.227,0.126-0.474,0.187-0.742,0.178c-0.275-0.006-0.522-0.079-0.741-0.226
			C0.467,14.603,0.296,14.423,0.177,14.211z"/>
		<path fill="#FFFFFF" d="M6.992,14.186c-1.474,0.459-3.118-0.166-3.884-1.572c-0.767-1.405-0.403-3.127,0.78-4.118L3.004,6.872
			c-2.065,1.49-2.75,4.325-1.5,6.617c1.25,2.292,4.005,3.25,6.375,2.321L6.992,14.186z"/>
	</g>
	<g>
		<path fill="#FFFFFF" d="M16.568,14.493c-0.125,0.206-0.301,0.376-0.529,0.509c-0.228,0.134-0.477,0.197-0.749,0.191
			c-0.271-0.007-0.517-0.077-0.737-0.213c-0.222-0.14-0.395-0.325-0.522-0.556c-0.126-0.231-0.188-0.477-0.183-0.737
			c0.004-0.259,0.078-0.5,0.218-0.72c0.138-0.229,0.321-0.404,0.547-0.528c0.227-0.124,0.472-0.184,0.735-0.175
			c0.264,0.007,0.507,0.076,0.73,0.21c0.223,0.134,0.398,0.318,0.523,0.554c0.134,0.241,0.193,0.492,0.176,0.754
			C16.761,14.046,16.692,14.283,16.568,14.493z"/>
		<path fill="#FFFFFF" d="M13.138,8.602c1.134,1.046,1.414,2.784,0.58,4.15c-0.833,1.365-2.507,1.913-3.956,1.383l-0.964,1.579
			c2.322,1.043,5.12,0.22,6.479-2.01c1.36-2.229,0.812-5.092-1.177-6.681L13.138,8.602z"/>
	</g>
	<circle fill="#FFFFFF" cx="8.712" cy="9.611" r="1.916"/>
</g>
<g>
	<path fill="#FFFFFF" d="M27.01,10.597h-6.395c-0.104,0-0.194,0.037-0.266,0.111s-0.107,0.167-0.104,0.275
		c0.003,0.107,0.042,0.196,0.116,0.266c0.074,0.066,0.158,0.103,0.254,0.103h6.395c0.085,0,0.165-0.032,0.237-0.096
		c0.074-0.064,0.115-0.151,0.125-0.258c0.006-0.109-0.029-0.205-0.104-0.284C27.195,10.636,27.108,10.597,27.01,10.597z"/>
	<path fill="#FFFFFF" d="M20.97,5.889h5.739c0.086,0,0.166-0.035,0.238-0.106c0.072-0.07,0.11-0.161,0.113-0.271
		c0-0.107-0.036-0.196-0.106-0.269c-0.071-0.073-0.154-0.109-0.245-0.109H20.97c-0.1,0-0.187,0.039-0.259,0.116
		c-0.071,0.077-0.106,0.168-0.105,0.272c0.002,0.105,0.04,0.193,0.114,0.263C20.793,5.854,20.877,5.889,20.97,5.889z"/>
	<path fill="#FFFFFF" d="M26.448,7.795H21.23c-0.092,0-0.173,0.039-0.242,0.113c-0.068,0.073-0.101,0.164-0.1,0.27
		c0.001,0.106,0.038,0.195,0.109,0.266c0.07,0.07,0.149,0.106,0.232,0.106h5.217c0.09,0,0.171-0.038,0.242-0.112
		c0.07-0.074,0.105-0.164,0.104-0.271c-0.001-0.105-0.037-0.194-0.104-0.265C26.621,7.831,26.54,7.795,26.448,7.795z"/>
	<path fill="#FFFFFF" d="M34.852,10.861c-0.172-0.132-0.411-0.346-0.712-0.638c-0.3-0.289-0.551-0.592-0.745-0.896
		c-0.198-0.307-0.367-0.603-0.509-0.879c-0.14-0.276-0.254-0.531-0.34-0.76c-0.085-0.228-0.178-0.542-0.275-0.933
		c-0.097-0.389-0.155-0.755-0.175-1.084l-0.02-0.64c-0.004-0.098-0.021-0.173-0.046-0.233c-0.03-0.065-0.079-0.118-0.149-0.16
		c-0.069-0.04-0.141-0.059-0.225-0.052c-0.137,0.012-0.241,0.069-0.312,0.168c-0.069,0.096-0.101,0.248-0.096,0.465
		c0.003,0.196-0.009,0.447-0.039,0.748c-0.03,0.299-0.071,0.597-0.121,0.885c-0.05,0.284-0.155,0.615-0.313,0.985
		c-0.16,0.373-0.301,0.67-0.425,0.885c-0.123,0.213-0.298,0.466-0.522,0.748c-0.223,0.28-0.472,0.523-0.739,0.722
		c-0.269,0.2-0.526,0.369-0.765,0.507c-0.331,0.189-0.403,0.248-0.43,0.279c-0.077,0.088-0.114,0.198-0.109,0.325
		c0.005,0.174,0.092,0.245,0.163,0.274c0.086,0.035,0.172,0.049,0.24,0.045c0.198-0.015,0.591-0.226,1.202-0.644
		c0.6-0.409,1.05-0.854,1.337-1.32c0.283-0.46,0.486-0.825,0.604-1.086c0.103-0.226,0.22-0.5,0.36-0.833
		c0.268,0.627,0.443,1.018,0.536,1.197c0.098,0.189,0.247,0.44,0.442,0.743c0.196,0.308,0.403,0.587,0.616,0.829
		c0.212,0.241,0.491,0.53,0.83,0.854c0.354,0.339,0.637,0.504,0.863,0.504h0.012c0.113,0,0.203-0.037,0.269-0.11
		c0.065-0.071,0.102-0.149,0.112-0.231c0.012-0.14-0.032-0.255-0.131-0.346C35.156,11.105,35.026,10.997,34.852,10.861z"/>
	<path fill="#FFFFFF" d="M38.885,9.864l-0.355-0.343c-0.154-0.146-0.267-0.24-0.344-0.286c-0.085-0.051-0.159-0.077-0.23-0.077l0,0
		c-0.092,0.003-0.168,0.036-0.229,0.102c-0.062,0.064-0.089,0.14-0.081,0.219c0.008,0.074,0.034,0.139,0.079,0.195
		c0.038,0.046,0.111,0.125,0.22,0.236l0.256,0.278c0.014,0.016,0.032,0.034,0.053,0.055c-0.507,0.249-1.072,0.433-1.682,0.545V8.419
		h1.941c0.201,0,0.347-0.033,0.448-0.1c0.098-0.065,0.173-0.149,0.224-0.25c0.05-0.101,0.076-0.212,0.076-0.33V5.623
		c0-0.221-0.057-0.384-0.167-0.486c-0.11-0.1-0.279-0.151-0.503-0.151h-2.006c-0.323,0-0.524,0.094-0.601,0.277
		c-0.069,0.167-0.101,0.303-0.098,0.413v4.836c0,0.164-0.03,0.244-0.051,0.278l-0.066,0.089c-0.038,0.056-0.057,0.116-0.061,0.176
		c-0.009,0.112,0.03,0.22,0.114,0.324c0.08,0.098,0.22,0.145,0.428,0.145c0.025,0,0.054-0.001,0.081-0.002
		c0.172-0.006,0.47-0.065,0.911-0.183c0.421-0.111,0.886-0.292,1.383-0.54c0.1,0.13,0.17,0.216,0.214,0.262
		c0.059,0.062,0.137,0.096,0.233,0.101c0.125,0.014,0.22-0.022,0.283-0.103c0.057-0.074,0.085-0.167,0.084-0.277
		c-0.001-0.107-0.057-0.248-0.172-0.43C39.162,10.18,39.032,10.017,38.885,9.864z M36.573,6.421V5.866
		c0-0.076,0.015-0.129,0.041-0.154c0.012-0.011,0.057-0.039,0.194-0.039h1.572c0.106,0.003,0.145,0.025,0.16,0.039
		c0.01,0.01,0.034,0.045,0.034,0.159v0.55H36.573z M38.573,7.068v0.459c0,0.136-0.025,0.185-0.042,0.203c0,0-0.043,0.042-0.33,0.042
		H36.88c-0.226,0-0.267-0.031-0.271-0.035c-0.003-0.002-0.036-0.038-0.036-0.21V7.068H38.573z"/>
	<path fill="#FFFFFF" d="M42.31,5.089c-0.116-0.058-0.258-0.087-0.423-0.087h-1.289c-0.297,0-0.485,0.046-0.573,0.141
		c-0.079,0.086-0.134,0.174-0.162,0.262c-0.027,0.083-0.041,0.176-0.041,0.274v5.768c0,0.104,0.033,0.196,0.099,0.272
		c0.068,0.077,0.148,0.114,0.238,0.114h0.006c0.09-0.002,0.172-0.041,0.243-0.117c0.067-0.073,0.103-0.164,0.103-0.27V6.269
		c-0.003-0.104,0-0.187,0.006-0.254c0.007-0.06,0.025-0.118,0.055-0.173c0.027-0.048,0.117-0.059,0.188-0.059h0.838
		c0.236,0,0.278,0.041,0.283,0.045c0.032,0.036,0.054,0.09,0.069,0.165c0.015,0.081,0.023,0.162,0.023,0.24v3.756
		c0,0.17-0.024,0.329-0.073,0.47c-0.04,0.113-0.157,0.116-0.357,0.038c-0.25-0.102-0.411-0.16-0.494-0.185
		c-0.093-0.026-0.173-0.028-0.245-0.001c-0.079,0.03-0.138,0.09-0.174,0.172c-0.038,0.082-0.031,0.188,0.021,0.32
		c0.052,0.137,0.218,0.244,0.507,0.324c0.252,0.072,0.465,0.107,0.632,0.107l0.033-0.001c0.34-0.004,0.569-0.12,0.68-0.343
		c0.104-0.206,0.157-0.406,0.157-0.59V5.825c0-0.241-0.028-0.406-0.085-0.502C42.518,5.226,42.429,5.148,42.31,5.089z M40.16,11.764
		L40.16,11.764L40.16,11.764L40.16,11.764z"/>
	<path fill="#FFFFFF" d="M47.916,9.207c0.018,0.005,0.036,0.008,0.053,0.008c0.078,0,0.156-0.041,0.233-0.118
		c0.053-0.051,0.083-0.127,0.09-0.224c0.008-0.101-0.044-0.217-0.162-0.36l-0.415-0.48C47.62,7.928,47.5,7.807,47.362,7.673
		c-0.151-0.148-0.275-0.223-0.377-0.232c-0.197-0.012-0.283,0.071-0.318,0.14c-0.05,0.095-0.055,0.191-0.022,0.287
		c0.032,0.091,0.113,0.2,0.248,0.331c0.126,0.122,0.205,0.201,0.24,0.239c0.035,0.035,0.15,0.167,0.348,0.388
		C47.755,9.137,47.859,9.193,47.916,9.207z"/>
	<path fill="#FFFFFF" d="M50.375,6.531h-0.944V5.043c0-0.092-0.033-0.175-0.101-0.246c-0.065-0.071-0.145-0.109-0.237-0.113
		c-0.096,0-0.179,0.036-0.246,0.105c-0.068,0.07-0.104,0.155-0.104,0.253v1.488h-2.151c-0.104,0-0.188,0.037-0.255,0.108
		c-0.066,0.071-0.1,0.156-0.098,0.251c0.001,0.098,0.04,0.178,0.111,0.238c0.067,0.059,0.148,0.088,0.241,0.088h2.151v3.447
		c0,0.146-0.031,0.209-0.057,0.236c-0.039,0.041-0.105,0.067-0.198,0.08c-0.097,0.016-0.216,0.015-0.354-0.002
		c-0.155-0.02-0.255-0.021-0.319-0.006c-0.064,0.018-0.128,0.061-0.19,0.126c-0.07,0.076-0.084,0.186-0.039,0.327
		c0.045,0.145,0.185,0.23,0.413,0.254c0.108,0.01,0.22,0.016,0.331,0.016c0.098,0,0.198-0.005,0.298-0.013
		c0.334-0.026,0.535-0.102,0.612-0.227c0.068-0.109,0.118-0.218,0.146-0.321c0.03-0.109,0.044-0.262,0.044-0.471V7.218h0.944
		c0.074,0,0.146-0.028,0.209-0.085s0.102-0.139,0.107-0.248c0.004-0.096-0.027-0.18-0.091-0.25
		C50.534,6.567,50.46,6.531,50.375,6.531z"/>
	<path fill="#FFFFFF" d="M45.656,5.137c-0.145-0.057-0.286-0.087-0.417-0.087h-0.732c-0.354,0-0.575,0.096-0.656,0.285
		c-0.074,0.17-0.112,0.329-0.112,0.469v4.54c0,0.176,0.031,0.367,0.098,0.569c0.072,0.225,0.322,0.34,0.743,0.34h0.689
		c0.279,0,0.47-0.071,0.562-0.211c0.083-0.126,0.141-0.247,0.17-0.36c0.027-0.11,0.04-0.225,0.04-0.338v-4.54
		c0-0.104-0.023-0.223-0.072-0.356C45.917,5.303,45.812,5.198,45.656,5.137z M45.355,8.324v1.843c0,0.075-0.006,0.144-0.02,0.205
		c-0.013,0.055-0.036,0.104-0.066,0.146c-0.011,0.015-0.054,0.049-0.205,0.049h-0.348c-0.206,0-0.245-0.04-0.251-0.049
		c-0.031-0.041-0.051-0.095-0.057-0.156c-0.01-0.072-0.014-0.146-0.014-0.22V8.324H45.355z M44.395,7.636V6.038
		c0-0.164,0.033-0.225,0.051-0.246c0.016-0.017,0.07-0.054,0.26-0.054h0.4c0.112,0,0.18,0.026,0.202,0.077
		c0.03,0.071,0.047,0.146,0.047,0.224v1.598H44.395z"/>
	<path fill="#FFFFFF" d="M58.35,11.214c-0.053-0.057-0.134-0.088-0.256-0.088l0,0c-0.181,0.005-0.379,0.004-0.596-0.005
		c-0.222-0.008-0.582-0.011-1.076-0.014c-0.499-0.001-1.03-0.008-1.577-0.022c-0.547-0.016-0.914-0.043-1.092-0.084
		c-0.171-0.038-0.33-0.098-0.474-0.18c-0.142-0.082-0.248-0.166-0.315-0.258c-0.069-0.089-0.119-0.176-0.146-0.257
		c-0.029-0.08-0.043-0.223-0.043-0.423V7.768c0-0.118-0.007-0.224-0.024-0.311c-0.016-0.094-0.037-0.164-0.066-0.215
		c-0.032-0.056-0.099-0.108-0.205-0.161C52.379,7.034,52.25,7.01,52.097,7.01h-0.71c-0.08,0-0.15,0.028-0.21,0.086
		c-0.061,0.058-0.093,0.131-0.096,0.221c-0.004,0.093,0.025,0.174,0.085,0.241c0.061,0.067,0.135,0.101,0.221,0.101h0.45
		c0.185,0,0.221,0.025,0.223,0.027c0.024,0.021,0.04,0.042,0.046,0.065c0.005,0.019,0.012,0.07,0.012,0.206v2.034
		c0,0.111-0.02,0.212-0.06,0.298c-0.029,0.063-0.119,0.192-0.38,0.46c-0.29,0.297-0.343,0.355-0.358,0.373
		c-0.073,0.097-0.104,0.184-0.099,0.264c0.006,0.082,0.035,0.146,0.09,0.189c0.05,0.043,0.117,0.063,0.211,0.063l0,0
		c0.084-0.001,0.165-0.026,0.241-0.076c0.067-0.046,0.128-0.096,0.177-0.147c0.044-0.048,0.194-0.206,0.454-0.476
		c0.167,0.173,0.314,0.303,0.443,0.384c0.141,0.089,0.292,0.164,0.456,0.222c0.164,0.06,0.423,0.104,0.787,0.136
		c0.355,0.031,0.9,0.051,1.619,0.053c0.718,0.005,1.229,0.008,1.528,0.014c0.303,0.006,0.484,0.009,0.54,0.009H57.8
		c0.261,0,0.418-0.035,0.492-0.112c0.071-0.074,0.113-0.141,0.12-0.203C58.421,11.345,58.401,11.268,58.35,11.214z"/>
	<path fill="#FFFFFF" d="M51.859,5.684c0.055,0.098,0.11,0.222,0.167,0.368c0.021,0.058,0.045,0.111,0.067,0.154
		c0.032,0.056,0.094,0.098,0.182,0.122c0.031,0.01,0.063,0.017,0.095,0.017c0.057,0,0.117-0.017,0.178-0.05
		c0.1-0.053,0.153-0.144,0.154-0.259c0.003-0.104-0.027-0.221-0.09-0.363C52.55,5.54,52.49,5.419,52.431,5.315
		c-0.062-0.105-0.132-0.209-0.211-0.31c-0.086-0.108-0.149-0.171-0.204-0.2c-0.094-0.044-0.197-0.041-0.299,0.008
		c-0.105,0.053-0.165,0.127-0.179,0.22c-0.013,0.089,0.025,0.197,0.118,0.33C51.737,5.477,51.805,5.586,51.859,5.684z"/>
	<path fill="#FFFFFF" d="M53.647,5.425h0.52c-0.005,0.003-0.01,0.006-0.012,0.011C54.07,5.517,54.028,5.591,54.03,5.66
		c0.003,0.062,0.023,0.125,0.063,0.188c0.042,0.063,0.125,0.128,0.259,0.199l0.281,0.146c0.12,0.063,0.262,0.143,0.418,0.236h-0.713
		c-0.173,0-0.328,0.021-0.46,0.061c-0.139,0.043-0.23,0.094-0.281,0.154C53.545,6.7,53.501,6.78,53.471,6.887
		c-0.032,0.103-0.046,0.249-0.046,0.448v2.997c0,0.09,0.032,0.166,0.097,0.229c0.061,0.061,0.137,0.09,0.231,0.09l0,0
		c0.095-0.002,0.171-0.035,0.232-0.098c0.063-0.063,0.098-0.138,0.098-0.222V9.378h1.191v0.943c0,0.087,0.032,0.162,0.095,0.222
		c0.058,0.058,0.131,0.087,0.215,0.087l0.021-0.001c0.092-0.005,0.166-0.037,0.222-0.099c0.058-0.061,0.088-0.132,0.088-0.209V9.378
		h1.373v0.621c0,0.135-0.019,0.177-0.027,0.19c-0.019,0.028-0.039,0.051-0.064,0.065c-0.012,0.006-0.049,0.021-0.159,0.021h-0.063
		c-0.12,0-0.227-0.007-0.321-0.019c-0.178-0.022-0.187-0.022-0.198-0.022c-0.249,0.003-0.293,0.16-0.296,0.25
		c-0.009,0.093,0.042,0.188,0.141,0.284c0.102,0.096,0.314,0.141,0.67,0.141h0.025c0.358,0,0.582-0.054,0.69-0.164
		c0.102-0.108,0.166-0.205,0.196-0.302c0.03-0.092,0.044-0.207,0.044-0.341V7.188c0-0.119-0.012-0.222-0.039-0.312
		c-0.025-0.092-0.079-0.188-0.159-0.286c-0.091-0.11-0.316-0.161-0.712-0.161h-0.767c0.483-0.212,0.836-0.374,1.049-0.483
		c0.242-0.125,0.425-0.296,0.542-0.509c0.054-0.091,0.074-0.216,0.061-0.373c-0.019-0.249-0.406-0.277-0.697-0.277H53.64
		c-0.095,0-0.176,0.033-0.24,0.097c-0.067,0.065-0.1,0.143-0.097,0.23c0.004,0.086,0.036,0.161,0.102,0.221
		C53.469,5.395,53.55,5.425,53.647,5.425z M56.71,5.523c-0.154,0.082-0.32,0.165-0.494,0.246c-0.166,0.077-0.371,0.153-0.606,0.229
		c-0.374-0.229-0.684-0.4-0.915-0.509c-0.058-0.026-0.108-0.046-0.154-0.063h2.274c0.019,0,0.034,0.002,0.044,0.006
		C56.837,5.449,56.793,5.478,56.71,5.523z M57.287,8.147v0.597h-1.373V8.147H57.287z M57.287,7.512h-1.373V6.999h1.055
		c0.169,0,0.222,0.024,0.238,0.034c0.032,0.022,0.051,0.048,0.062,0.079c0.008,0.027,0.019,0.084,0.019,0.197V7.512z M55.275,6.999
		v0.514h-1.191v-0.25c0-0.116,0.022-0.193,0.064-0.216c0.039-0.022,0.12-0.048,0.3-0.048H55.275z M55.275,8.147v0.597h-1.191V8.147
		H55.275z"/>
</g>
</svg>
