<?xml version="1.0" encoding="utf-8"?>
<!-- Generator: Adobe Illustrator 16.0.0, SVG Export Plug-In . SVG Version: 6.00 Build 0)  -->
<!DOCTYPE svg PUBLIC "-//W3C//DTD SVG 1.1//EN" "http://www.w3.org/Graphics/SVG/1.1/DTD/svg11.dtd">
<svg version="1.1" id="_1" xmlns="http://www.w3.org/2000/svg" xmlns:xlink="http://www.w3.org/1999/xlink" x="0px" y="0px"
	 width="430.124px" height="72.089px" viewBox="0 0 430.124 72.089" enable-background="new 0 0 430.124 72.089"
	 xml:space="preserve">
<path fill="#FFFFFF" d="M82.054,0.006H28.947c0,0-0.872,0.196-10.751,12.981c0,0-3.521,4.745,1.163,5.519h53.787
	c0,0,0.646-0.226,1.593-1.938l8.504-15.451C83.242,1.118,83.746-0.1,82.054,0.006z"/>
<path fill="#FFFFFF" d="M16.778,25.189h49.877c0,0,0.591,0.266,1.549,1.065c0,0,9.976,8.716,8.329,23.438
	c0,0-2.325,15.874-13.753,22.168H3.945c0,0-0.435-0.146,0-1.259l4.697-17.812c0,0,0.272-0.199,1.033-0.193h36.609
	c0,0,5.101-1.291,2.971-6.521c0,0-1.356-2.453-4.327-2.646l-23.373,0.064c0,0-7.01-0.064-6.506-8.331
	C15.049,35.164,15.518,25.933,16.778,25.189z"/>
<path fill="#FFFFFF" d="M89.487,22.188h13.22c0,0-1.7,7.701-2.397,10.041l-12.815,0.096c0,0-0.452,0-0.355-0.451l2.283-9.428
	C89.421,22.445,89.447,22.172,89.487,22.188z"/>
<path fill="#FFFFFF" d="M115.403,22.219l37.287-0.032c0,0,0.582-0.032,0.355,0.58l-4.035,8.879c0,0-0.388,0.484-0.711,0.322
	l-35.608,0.033c0,0-0.678,0-0.549-0.808l3.003-8.781C115.145,22.413,115.241,22.219,115.403,22.219z"/>
<path fill="#FFFFFF" d="M165.538,21.995l36.744-0.084c0,0,0.452-0.03,0.323,0.744l-3.039,8.892c0,0-0.194,1.001-0.71,0.903
	l-36.711-0.037c0,0-0.839,0.098-0.323-0.548l3.201-9.708C165.021,22.158,165.247,21.995,165.538,21.995z"/>
<path fill="#FFFFFF" d="M208.798,2.083c0,0-0.677-1.034,0.646-0.808l23.6-0.417c0,0,0.253,0,0.484,0.774l3.573,16.391
	c0,0-0.064,0.581-0.419,0.484l-22.551-0.273c0,0-0.807,0.227-1.034-0.452L208.798,2.083z"/>
<path fill="#FFFFFF" d="M272.912,0.953c0,0,0.291-0.744,1.324-0.484l29.506-0.055c0,0,0.905-0.106,0.194,0.732l-13.996,16.891
	c0,0-0.406,0.482-0.905,0.646l-28.434-0.001c0,0-0.839-0.111-0.388-0.822L272.912,0.953z"/>
<path fill="#FFFFFF" d="M415.262,22.256l14.576-0.161c0,0,0.484-0.098,0.194,0.517l-3.936,9.769c0,0-0.194,0.613-0.453,0.421
	l-14.264-0.054c0,0-0.362,0.146-0.243-0.437l3.869-9.853C415.006,22.458,415.148,22.176,415.262,22.256z"/>
<path fill="#FFFFFF" d="M376.37,22.351c0,0,0.122-0.484,0.364-0.387l14.233-0.212c0,0,0.412-0.061,0.339,0.4l-3.75,10.07
	c0,0-0.145,0.435-0.484,0.411l-13.354,0.098c0,0-0.243-0.074-0.17-0.388L376.37,22.351z"/>
<path fill="#FFFFFF" d="M328.053,22.624c0,0,0.194-0.652,0.677-0.532l35.715,0.024c0,0,0.653,0,0.386,0.508l-3.56,10.11
	c0,0-0.29,0.461-0.798,0.34l-35.13-0.102c0,0-0.509-0.146,0-0.728L328.053,22.624z"/>
<path fill="#FFFFFF" d="M303.189,22.617c0,0,0.023-0.532,0.508-0.532h13.22c0,0,0.484,0.024,0.29,0.532l-3.125,10.301
	c0,0-0.024,0.267-0.339,0.218L300.48,33.03c0,0-0.46-0.005-0.145-0.708L303.189,22.617z"/>
<path fill="#FFFFFF" d="M86.445,40.459h12.106c0,0,0.193,0.128,0,0.581l-8.362,30.241c0,0-0.075,0.58-0.678,0.58H77.986
	c0,0-0.387-0.194,0-1.308l7.845-29.675C85.831,40.879,85.847,40.459,86.445,40.459z"/>
<path fill="#FFFFFF" d="M123.457,40.541h10.605c0,0,0.702-0.098,0.315,0.557l-7.676,30.352c0,0-0.073,0.437-0.436,0.412
	l-10.969,0.001c0,0-0.192-0.121,0-0.654l7.797-30.354C123.095,40.855,123.142,40.541,123.457,40.541z"/>
<path fill="#FFFFFF" d="M159.375,42.119c0,0-0.072-0.703,0.606-0.508l36.376-0.035c0,0,0.715-0.055,0.581,0.495
	c0,0-2.124,6.431-3.572,9.582c-1.087,0.092-18.466,0.139-18.466,0.139s-4.067,0-4.584,4.777c0,0-0.192,2.584,2.615,2.81
	l18.051,0.144c0,0,0.29-0.129,0.29,0.355l-2.841,11.76c0,0,0.033,0.453-0.258,0.453l-35.496-0.24c0,0-0.58,0.194-0.257-0.903
	L159.375,42.119z"/>
<path fill="#FFFFFF" d="M215.464,25.599l22.147,0.248c0,0,0.774-0.164,0.871,0.936l2.702,12.933l14.328-13.75l28.221-0.098
	c0,0,0.614-0.035,0,0.775l-36.017,44.325c0,0-0.243,0.339-1.259,0.436h-23.148c0,0-0.435-0.048-0.339-0.628l-8.231-44.695
	C214.739,26.078,214.711,25.651,215.464,25.599z"/>
<path fill="#FFFFFF" d="M298.344,40.277h13.704c0,0,0.339,0,0.145,0.364l-8.419,30.593c0,0-0.025,0.338-0.484,0.338l-13.824,0.092
	c0,0-0.412,0.122-0.147-0.531l8.88-30.638L298.344,40.277z"/>
<path fill="#FFFFFF" d="M323.307,41.025c0,0,0-0.51,0.484-0.461h36.027c0,0,0.46,0.023,0.17,0.461l-2.664,11.428
	c0,0-0.096,0.314-0.362,0.314l-15.217,0.411c0,0-10.35,3.315-0.715,5.714l14.625-0.147c0,0,0.145-0.169,0.145,0.219L353.5,71.603
	c0,0-0.073,0.121-0.218,0.146l-37.893,0.145c0,0-0.339-0.047-0.17-0.435L323.307,41.025z"/>
<path fill="#FFFFFF" d="M372.124,40.796c0,0,0.108-0.471,0.412-0.46l14.401-0.008c0,0,0.145-0.109,0.218,0.473
	c0,0,1.487,8.042,2.105,10.312c0,0,1.975-2.498,6.974-10.791c0,0,0,0,1.291,0c0,0,1.874,8.206,3.034,11.146
	c0,0,3.585-3.637,8.167-11.132l14.625,0.058c0,0,0.194-0.072,0,0.582l-10.718,30.473c0,0-0.065,0.354-0.486,0.451h-13.526
	c0,0-0.355-0.032-0.548-0.42l-5.712-7.454h-4.456l-8.997,7.987H364.8c0,0-0.225,0.032,0-0.678L372.124,40.796z"/>
<g opacity="0.9">
	<defs>
		<filter id="Adobe_OpacityMaskFilter" filterUnits="userSpaceOnUse" x="323.964" y="41.302" width="34.315" height="3.325">
			<feFlood  style="flood-color:white;flood-opacity:1" result="back"/>
			<feBlend  in="SourceGraphic" in2="back" mode="normal"/>
		</filter>
	</defs>
	<mask maskUnits="userSpaceOnUse" x="323.964" y="41.302" width="34.315" height="3.325" id="SVGID_1_">
		<g filter="url(#Adobe_OpacityMaskFilter)">
			<defs>
				<filter id="Adobe_OpacityMaskFilter_1_" filterUnits="userSpaceOnUse" x="323.964" y="41.302" width="34.315" height="3.325">
					<feFlood  style="flood-color:white;flood-opacity:1" result="back"/>
					<feBlend  in="SourceGraphic" in2="back" mode="normal"/>
				</filter>
			</defs>
			<mask maskUnits="userSpaceOnUse" x="323.964" y="41.302" width="34.315" height="3.325" id="SVGID_1_">
				<g filter="url(#Adobe_OpacityMaskFilter_1_)">
				</g>
			</mask>
			
				<linearGradient id="SVGID_2_" gradientUnits="userSpaceOnUse" x1="657.7261" y1="4175.4971" x2="661.3051" y2="4165.6636" gradientTransform="matrix(0.9996 -0.0099 0.0099 -0.7505 -359.2888 3179.1177)">
				<stop  offset="0.0242" style="stop-color:#333333"/>
				<stop  offset="0.2545" style="stop-color:#FFFFFF"/>
				<stop  offset="0.5091" style="stop-color:#FFFFFF"/>
				<stop  offset="0.7697" style="stop-color:#FFFFFF"/>
				<stop  offset="1" style="stop-color:#333333"/>
			</linearGradient>
			<path mask="url(#SVGID_1_)" fill="url(#SVGID_2_)" d="M343.365,44.604c10.107-0.189,14.203-2.926,14.914-3.301
				c0,0-5.552,1.414-16.338,1.136c-11.586-0.299-13.945,0.09-17.977,0.844C323.962,43.282,330.86,44.836,343.365,44.604z"/>
		</g>
	</mask>
	<path fill="#FFFFFF" d="M343.365,44.604c10.107-0.189,14.203-2.926,14.914-3.301c0,0-5.552,1.414-16.338,1.136
		c-11.586-0.299-13.945,0.09-17.977,0.844C323.962,43.282,330.86,44.836,343.365,44.604z"/>
</g>
<g opacity="0.9">
	<defs>
		<filter id="Adobe_OpacityMaskFilter_2_" filterUnits="userSpaceOnUse" x="18.354" y="38.593" width="32.183" height="2.012">
			<feFlood  style="flood-color:white;flood-opacity:1" result="back"/>
			<feBlend  in="SourceGraphic" in2="back" mode="normal"/>
		</filter>
	</defs>
	<mask maskUnits="userSpaceOnUse" x="18.354" y="38.593" width="32.183" height="2.012" id="SVGID_3_">
		<g filter="url(#Adobe_OpacityMaskFilter_2_)">
			<defs>
				<filter id="Adobe_OpacityMaskFilter_3_" filterUnits="userSpaceOnUse" x="18.354" y="38.593" width="32.183" height="2.012">
					<feFlood  style="flood-color:white;flood-opacity:1" result="back"/>
					<feBlend  in="SourceGraphic" in2="back" mode="normal"/>
				</filter>
			</defs>
			<mask maskUnits="userSpaceOnUse" x="18.354" y="38.593" width="32.183" height="2.012" id="SVGID_3_">
				<g filter="url(#Adobe_OpacityMaskFilter_3_)">
				</g>
			</mask>
			
				<linearGradient id="SVGID_4_" gradientUnits="userSpaceOnUse" x1="1418.103" y1="2002.0029" x2="1424.4086" y2="1984.6787" gradientTransform="matrix(0.6222 -6.000000e-004 6.000000e-004 -0.4707 -851.0548 978.9868)">
				<stop  offset="0.0242" style="stop-color:#333333"/>
				<stop  offset="0.2485" style="stop-color:#FFFFFF"/>
				<stop  offset="0.5091" style="stop-color:#FFFFFF"/>
				<stop  offset="0.7394" style="stop-color:#FFFFFF"/>
				<stop  offset="1" style="stop-color:#333333"/>
			</linearGradient>
			<path mask="url(#SVGID_3_)" fill="url(#SVGID_4_)" d="M35.23,40.584c7.017,0.12,14.804-0.306,15.307-0.55
				c0,0-7.264-0.84-14.743-1.305c-8.332-0.518-14.911,0.584-17.44,0.968C18.354,39.698,26.549,40.436,35.23,40.584z"/>
		</g>
	</mask>
	<path fill="#FFFFFF" d="M35.23,40.584c7.017,0.12,14.804-0.306,15.307-0.55c0,0-7.264-0.84-14.743-1.305
		c-8.332-0.518-14.911,0.584-17.44,0.968C18.354,39.698,26.549,40.436,35.23,40.584z"/>
</g>
<g opacity="0.9">
	<defs>
		<filter id="Adobe_OpacityMaskFilter_4_" filterUnits="userSpaceOnUse" x="219.479" y="29.015" width="8.908" height="39.022">
			<feFlood  style="flood-color:white;flood-opacity:1" result="back"/>
			<feBlend  in="SourceGraphic" in2="back" mode="normal"/>
		</filter>
	</defs>
	<mask maskUnits="userSpaceOnUse" x="219.479" y="29.015" width="8.908" height="39.022" id="SVGID_5_">
		<g filter="url(#Adobe_OpacityMaskFilter_4_)">
			<defs>
				<filter id="Adobe_OpacityMaskFilter_5_" filterUnits="userSpaceOnUse" x="219.479" y="29.015" width="8.908" height="39.022">
					<feFlood  style="flood-color:white;flood-opacity:1" result="back"/>
					<feBlend  in="SourceGraphic" in2="back" mode="normal"/>
				</filter>
			</defs>
			<mask maskUnits="userSpaceOnUse" x="219.479" y="29.015" width="8.908" height="39.022" id="SVGID_5_">
				<g filter="url(#Adobe_OpacityMaskFilter_5_)">
				</g>
			</mask>
			
				<linearGradient id="SVGID_6_" gradientUnits="userSpaceOnUse" x1="3090.998" y1="5907.8594" x2="3095.8743" y2="5894.4619" gradientTransform="matrix(0.2306 0.973 0.5346 -0.1239 -3644.1729 -2230.2344)">
				<stop  offset="0.0242" style="stop-color:#333333"/>
				<stop  offset="0.2485" style="stop-color:#FFFFFF"/>
				<stop  offset="0.5091" style="stop-color:#FFFFFF"/>
				<stop  offset="0.7394" style="stop-color:#FFFFFF"/>
				<stop  offset="1" style="stop-color:#333333"/>
			</linearGradient>
			<path mask="url(#SVGID_5_)" fill="url(#SVGID_6_)" d="M228.388,68.038c0,0-1.34-8.965-3.07-18.112
				c-1.928-10.19-4.778-17.927-5.838-20.911"/>
		</g>
	</mask>
	<path fill="#FFFFFF" d="M228.388,68.038c0,0-1.34-8.965-3.07-18.112c-1.928-10.19-4.778-17.927-5.838-20.911"/>
</g>
</svg>
